P2
#CREATOR: gd-jpeg v1.0 (using IJG JPEG v62), quality = 95
#
80 192
255
17 17 68 51 68 68 85 85 85 85 85 85 85 85 85 85 102 119 119 136 170 153 153 136 119 102 85 85 85 85 85 85 85 85 85 85 85 85 85 85 85 85 85 85 85 85 85 85 85 85 85 85 85 85 85 85 85 85 68 68 68 68 68 68 68 68 51 51 34 34 17 17 17 17 0 0 0 0 0 0 
34 34 68 51 68 68 85 85 85 85 85 85 85 85 102 85 102 102 136 136 170 153 153 136 102 102 85 85 85 85 85 85 85 85 85 85 85 85 85 85 85 85 85 85 85 85 85 85 85 85 85 85 85 85 85 85 85 85 68 68 68 68 68 68 68 68 51 51 34 34 34 17 17 17 0 0 17 0 0 0 
34 51 51 51 85 85 85 85 85 85 85 85 85 85 102 102 136 136 119 153 153 153 136 136 102 85 85 85 85 85 85 85 85 85 85 85 85 85 85 85 85 85 85 85 85 85 85 85 85 85 85 85 85 85 85 85 85 85 68 68 68 68 68 68 68 51 51 51 34 34 34 34 17 0 0 0 0 0 0 0 
34 51 51 51 85 85 85 85 85 85 85 85 85 85 102 102 136 153 136 153 136 136 136 136 102 85 85 85 85 85 85 85 85 85 85 85 85 85 85 85 85 85 85 85 85 85 85 85 85 85 85 85 85 85 85 85 85 85 68 68 85 85 68 68 68 51 51 51 34 34 34 34 17 17 0 17 0 0 0 17 
68 68 68 85 85 85 85 85 85 85 85 85 85 85 102 102 136 136 153 153 153 153 136 136 85 85 85 85 85 85 85 85 85 85 85 85 85 85 85 85 85 85 85 85 85 85 85 85 85 85 85 85 85 85 85 85 85 85 68 85 85 85 68 68 68 68 68 51 51 51 34 34 17 0 0 0 0 0 0 0 
68 68 68 68 85 85 85 85 85 85 85 85 85 85 102 102 136 136 153 153 153 153 136 136 102 85 85 85 85 85 85 85 85 85 85 85 85 85 85 85 85 85 85 85 85 85 85 85 85 85 85 85 85 85 85 85 85 68 85 68 85 85 68 68 68 68 51 51 51 51 34 34 17 17 17 17 17 0 0 0 
68 68 85 85 85 85 85 85 85 85 85 85 85 85 85 102 136 136 136 153 153 153 153 153 119 102 85 85 85 85 85 85 85 85 85 85 85 85 85 85 85 85 85 85 85 102 85 85 85 85 85 85 85 85 85 85 85 85 85 85 85 85 68 68 68 68 68 68 51 51 51 34 17 17 0 0 0 0 0 0 
51 68 85 85 85 85 85 85 85 85 85 85 85 85 85 102 136 136 136 153 153 153 153 153 119 102 85 85 85 85 85 85 85 85 85 85 85 85 85 85 85 85 85 85 85 85 85 102 85 85 85 85 85 85 85 85 85 85 85 85 85 85 68 68 68 68 68 68 51 51 51 34 17 17 17 0 17 0 0 17 
51 68 68 68 85 85 85 85 85 85 85 85 85 85 85 102 153 153 136 153 153 153 136 153 119 102 85 85 85 85 85 85 85 85 85 85 85 85 85 85 85 85 85 85 85 102 102 85 85 85 85 85 85 85 85 85 85 85 85 85 85 85 85 68 68 68 68 68 51 34 34 17 17 17 17 17 0 17 0 0 
51 68 68 68 85 85 85 85 85 85 85 85 85 102 85 102 153 153 153 153 153 153 153 136 119 102 85 85 85 85 85 85 85 85 85 85 85 85 85 85 85 85 85 85 85 102 85 85 85 85 85 85 85 85 85 85 85 85 85 85 85 68 68 85 68 68 68 68 51 34 34 34 17 17 17 17 0 0 0 0 
68 68 68 68 85 85 68 51 85 85 85 85 102 102 102 119 136 136 153 136 153 153 136 153 119 102 102 85 85 85 85 85 85 85 85 85 85 85 85 85 85 85 85 85 85 85 85 85 85 85 85 85 85 85 85 68 85 85 85 85 85 68 51 51 68 68 68 68 51 51 34 34 17 17 17 17 17 0 0 0 
68 68 68 85 85 85 68 51 85 85 85 85 102 102 102 136 136 136 153 153 153 153 153 153 136 119 85 85 85 85 85 85 85 85 85 68 85 85 85 85 85 85 85 85 85 102 85 85 85 85 85 85 85 85 85 85 85 85 85 85 68 68 68 34 85 68 68 51 51 51 34 17 17 17 17 17 0 17 0 0 
68 51 17 17 17 17 17 17 85 68 34 51 51 34 17 17 68 34 102 136 68 34 34 34 51 51 68 68 68 34 34 34 17 34 51 34 51 68 85 68 68 51 34 34 85 102 85 51 68 85 85 68 68 51 68 51 68 51 17 0 17 34 17 17 51 34 34 34 34 34 17 17 0 0 0 17 17 0 0 0 
68 68 17 17 17 17 0 0 85 51 34 51 68 17 17 17 34 34 68 136 119 17 34 17 34 51 68 68 51 34 17 17 17 17 68 51 34 85 85 34 51 34 17 17 68 102 85 51 68 85 85 85 34 51 68 17 34 34 0 0 17 34 34 17 34 34 17 17 34 34 17 17 0 0 0 0 17 0 0 0 
51 68 51 34 0 0 0 17 85 68 51 170 119 34 34 17 17 34 34 136 153 34 0 17 17 17 85 85 17 0 17 17 34 17 119 51 34 170 136 34 0 0 17 17 34 102 102 17 68 170 102 85 34 102 170 17 34 17 17 0 17 102 34 17 0 0 17 17 102 34 0 0 0 0 0 0 0 17 0 17 
68 68 34 34 0 0 0 34 119 68 34 187 102 51 17 17 17 34 34 136 153 17 0 17 17 17 119 102 17 0 17 17 34 51 136 34 34 187 102 0 0 17 17 17 51 119 119 34 68 170 102 85 34 136 153 34 17 17 17 17 17 136 51 34 0 0 0 17 136 17 0 0 0 0 0 17 51 0 0 0 
34 34 0 0 17 17 17 17 153 34 34 170 51 17 17 17 17 17 0 153 153 34 17 17 17 17 102 102 51 34 34 17 17 17 153 51 34 170 85 34 34 17 17 17 34 136 119 34 85 119 85 85 51 119 102 34 17 0 17 17 34 136 51 17 17 0 0 17 136 17 17 17 0 17 0 17 85 0 17 0 
34 34 17 0 0 17 17 17 136 34 17 153 85 17 17 17 17 17 17 170 170 34 17 17 0 0 85 119 51 34 17 17 17 17 153 34 34 170 68 17 34 17 17 17 34 136 119 51 68 119 85 85 34 136 102 51 0 0 0 17 34 136 51 34 0 0 0 0 136 34 0 17 0 0 0 17 119 0 0 0 
51 51 0 34 153 153 153 119 136 51 34 153 85 51 68 170 170 51 17 170 170 34 68 170 153 136 119 136 17 34 153 153 153 119 119 68 17 170 68 34 51 153 153 68 34 136 102 34 85 119 85 85 34 136 102 102 170 17 17 170 119 136 68 34 136 153 153 119 136 34 0 85 153 153 34 17 136 0 17 17 
51 51 0 51 255 255 221 187 153 51 34 136 85 34 119 221 238 153 17 153 170 17 119 221 255 255 187 136 17 51 255 238 221 204 136 68 17 170 68 34 136 255 238 170 34 136 119 34 85 136 85 85 17 136 102 153 255 34 34 238 221 170 68 34 204 255 255 238 153 34 0 153 255 238 119 17 153 17 0 0 
51 68 51 51 170 153 153 153 153 51 34 153 85 51 102 187 221 153 17 170 170 17 119 204 187 170 170 119 17 51 221 187 136 153 153 68 34 153 68 34 170 221 153 119 51 153 119 34 68 136 102 85 34 119 102 136 221 34 51 204 136 153 85 34 170 187 170 153 170 68 34 136 187 170 85 17 153 17 0 0 
68 68 34 68 102 85 68 85 119 68 34 170 102 34 119 136 153 136 34 170 170 17 102 170 153 136 119 119 17 68 136 85 85 85 119 68 34 153 68 34 170 136 85 85 34 153 153 17 85 136 85 85 34 119 102 102 85 34 51 136 68 102 85 51 170 119 119 85 102 51 34 136 51 17 34 17 153 17 17 17 
51 51 34 68 119 85 85 85 85 51 17 170 102 51 119 136 136 136 51 170 170 17 119 170 170 170 119 119 51 68 136 102 85 85 102 51 17 170 85 51 153 102 102 85 34 153 153 34 85 119 85 85 34 136 85 85 102 34 68 136 68 102 85 34 170 136 119 102 68 51 17 136 68 34 17 0 153 17 0 0 
51 34 17 68 102 85 85 85 85 34 34 170 102 34 119 136 153 136 34 170 170 34 119 170 170 170 102 102 51 68 119 102 85 85 85 34 34 170 85 34 153 102 85 85 17 170 153 34 68 119 85 85 51 119 102 85 85 34 68 136 85 85 85 34 170 136 102 102 85 34 17 136 51 17 17 0 153 17 17 0 
51 68 17 68 136 68 85 85 85 68 51 153 102 51 119 136 136 136 17 170 170 17 102 170 170 153 119 119 51 51 153 102 85 85 85 85 51 153 85 51 136 85 85 68 34 153 136 34 85 136 102 85 51 136 102 85 85 51 68 136 85 102 85 51 170 153 136 136 85 68 51 136 68 51 34 34 153 17 17 0 
68 68 17 68 136 68 85 85 85 68 34 153 102 34 102 136 136 119 17 170 170 34 119 170 153 153 119 119 51 68 119 102 85 85 85 85 34 153 85 34 136 85 85 85 85 187 119 34 85 136 102 102 51 119 102 85 102 51 51 153 85 102 102 34 170 153 136 136 102 68 34 136 68 51 34 34 153 17 17 17 
68 68 51 51 102 68 85 85 85 68 34 170 102 51 51 119 119 85 17 170 170 34 85 153 136 119 136 119 34 51 119 102 85 85 85 68 34 170 85 34 136 102 102 102 204 221 119 51 68 136 102 102 51 119 102 85 102 51 68 153 85 119 102 34 153 119 119 119 119 68 17 68 51 17 17 17 153 17 17 0 
68 68 34 34 51 51 68 85 68 34 17 153 85 51 34 34 34 51 34 170 153 17 17 17 51 85 136 119 34 34 34 51 68 102 85 68 17 170 102 51 136 102 34 51 68 170 119 34 34 34 34 34 34 119 102 85 102 34 51 153 102 119 102 51 34 34 51 119 136 34 0 17 17 0 17 17 153 17 17 17 
34 34 17 0 34 17 17 119 85 68 51 153 102 17 0 0 34 17 17 187 153 34 17 17 34 85 153 136 34 17 17 17 34 136 102 68 34 153 85 34 136 68 51 34 34 85 119 51 0 0 17 17 34 136 136 102 102 51 68 153 136 136 85 34 34 34 17 119 119 102 17 17 17 0 0 17 170 17 17 0 
34 34 17 17 34 34 34 153 85 68 51 153 102 0 0 0 17 17 17 204 153 17 17 17 17 102 153 119 34 17 17 17 51 170 102 85 34 153 85 34 153 85 34 34 34 119 119 51 0 17 17 34 34 119 119 102 102 51 51 170 136 119 85 34 17 17 17 153 102 85 34 34 0 0 0 34 170 17 17 17 
51 51 17 17 17 34 34 153 85 68 34 153 102 51 0 0 0 0 17 221 153 34 0 17 17 85 170 119 17 0 17 0 51 170 102 68 34 170 102 34 153 51 17 17 34 153 136 17 0 17 34 68 51 119 119 102 119 51 85 170 136 136 85 51 17 17 0 170 102 85 51 34 0 0 0 51 187 17 17 0 
68 68 17 17 17 34 34 153 85 34 34 153 102 34 51 17 0 0 68 238 153 0 0 17 17 85 170 119 34 0 0 0 51 153 119 51 34 170 102 17 153 51 17 17 34 153 119 17 0 0 34 136 34 119 119 119 136 51 68 170 153 153 85 34 17 17 0 153 119 85 51 51 0 17 0 102 187 17 17 17 
68 68 51 34 68 51 68 153 85 51 34 170 119 34 85 34 17 51 187 221 136 34 34 68 51 85 204 136 34 17 68 68 68 187 119 68 17 187 102 34 153 51 34 17 17 153 119 34 17 68 119 204 17 119 119 119 119 51 51 187 136 136 119 34 68 68 68 153 119 85 17 85 17 17 51 221 153 17 17 17 
68 68 34 51 238 238 204 153 85 51 34 170 102 51 102 51 17 221 255 204 136 17 119 238 238 187 170 136 34 51 238 238 204 187 119 68 34 170 102 34 136 85 187 136 17 153 119 34 68 221 238 204 17 119 119 102 102 68 51 153 119 119 102 51 204 221 221 187 119 102 17 119 17 17 238 238 102 17 17 17 
51 51 34 51 204 221 187 119 85 68 51 153 102 34 119 85 34 187 204 153 136 34 102 238 204 187 187 153 34 51 221 204 187 153 119 68 34 170 102 34 136 102 204 170 34 153 136 34 68 221 204 119 0 136 136 102 102 34 51 153 102 119 85 34 204 238 204 187 136 119 34 136 51 17 204 204 34 17 17 17 
51 51 17 68 119 68 85 85 85 68 51 153 102 34 119 102 51 136 153 153 136 34 119 187 170 170 170 136 51 68 170 136 136 119 102 85 34 153 85 34 136 119 170 136 34 153 136 34 85 136 102 85 0 136 136 102 102 34 68 153 102 119 85 34 170 153 136 136 136 119 34 136 51 0 68 51 34 34 17 17 
51 68 17 68 136 51 85 85 85 51 34 153 102 34 119 119 17 85 170 153 136 17 119 187 153 170 170 153 68 68 153 136 119 136 102 85 51 153 102 51 136 102 102 85 17 153 136 34 68 136 102 85 51 119 102 85 102 51 51 153 119 119 85 51 170 153 153 136 136 136 51 136 68 17 68 34 34 34 34 34 
68 68 34 68 136 68 85 85 85 34 34 170 102 51 119 119 17 51 170 136 136 34 119 187 170 170 170 170 51 68 153 119 136 119 85 85 34 153 102 34 136 102 102 102 17 153 136 34 85 136 102 85 34 119 102 85 85 51 68 153 102 119 85 34 170 153 153 136 119 119 34 136 85 17 51 51 34 34 34 34 
68 85 51 68 119 85 85 85 85 68 34 170 102 34 119 119 17 34 153 136 136 34 102 187 170 170 170 170 34 51 187 119 136 119 119 85 34 170 102 34 136 102 102 102 34 153 136 34 68 119 85 85 34 119 102 85 85 51 51 153 102 119 102 51 170 153 136 136 119 119 34 136 68 34 51 68 34 34 34 17 
68 68 34 68 119 68 85 85 85 68 34 153 102 34 119 136 51 51 153 136 119 34 119 204 170 170 153 170 34 51 170 119 136 119 102 68 17 187 119 34 119 119 102 85 34 153 153 34 85 119 85 85 34 136 102 85 85 68 68 136 85 102 85 51 170 153 136 136 102 136 34 136 68 34 51 68 34 34 34 34 
51 68 34 68 102 85 85 85 85 68 34 170 102 34 119 136 51 34 136 153 136 34 34 85 85 68 68 170 51 68 153 119 102 102 85 68 34 170 119 34 51 68 51 34 17 153 170 17 85 136 102 85 51 136 102 85 85 34 68 136 85 102 85 34 102 85 51 51 85 136 34 136 85 51 51 85 51 51 34 34 
68 51 17 68 119 85 85 85 85 68 34 153 85 51 102 119 68 34 119 153 119 34 17 17 17 17 51 204 34 85 153 119 102 85 85 85 17 170 119 34 34 51 0 17 17 153 136 17 85 136 85 85 51 119 102 85 85 34 68 153 85 102 85 34 34 34 0 0 102 136 34 136 85 68 34 68 68 51 34 34 
51 68 34 68 119 68 85 85 85 68 51 153 85 34 119 119 85 34 85 187 136 34 34 17 17 17 51 204 34 51 153 136 102 102 102 85 17 204 119 34 34 17 17 17 34 153 136 34 68 136 85 85 34 136 119 85 85 68 68 136 85 102 85 51 17 17 17 0 119 153 34 136 85 85 34 68 68 51 51 34 
68 68 51 68 119 85 85 85 85 68 34 153 85 51 119 102 85 17 51 187 136 51 17 17 17 17 51 221 34 51 136 119 102 102 119 51 17 187 119 34 17 17 17 34 34 153 136 34 85 119 85 85 34 119 119 102 85 51 68 119 102 119 85 34 17 17 17 0 153 153 17 136 85 68 34 51 68 51 34 34 
68 68 34 68 102 85 85 85 68 34 34 153 85 51 102 102 85 68 51 187 187 0 0 17 17 0 68 221 34 51 170 119 102 102 102 85 17 187 136 34 0 0 17 68 17 153 153 34 68 153 119 85 51 119 102 85 85 51 51 136 85 102 85 34 17 0 17 17 153 136 34 136 102 85 51 51 51 34 34 17 
68 68 34 34 85 85 85 85 68 34 17 85 85 51 68 102 85 51 34 136 136 0 0 0 17 0 102 187 34 34 136 136 102 102 102 68 34 119 136 85 0 17 34 136 17 85 119 17 51 136 119 68 34 68 102 102 85 51 51 102 102 102 68 51 0 0 0 17 170 102 34 68 102 85 51 34 34 34 34 17 
51 34 34 85 68 85 85 85 68 51 85 85 51 51 85 85 85 68 85 119 102 68 85 85 85 68 153 153 85 85 136 136 102 102 85 85 85 85 136 170 102 68 153 204 68 85 85 68 85 119 102 68 68 85 102 102 68 51 85 85 102 102 51 68 85 85 85 68 187 85 68 85 102 68 34 102 51 51 34 17 
51 51 119 238 136 85 85 85 85 85 221 187 85 170 204 102 102 153 221 221 187 221 255 238 238 238 238 187 170 204 187 136 119 119 102 119 221 204 136 187 255 255 238 221 204 221 170 187 204 153 85 102 204 221 119 102 102 136 221 153 102 102 119 221 255 255 238 238 221 119 204 221 119 51 136 221 187 51 17 17 
51 68 153 187 204 68 68 85 85 119 187 187 136 187 187 170 85 153 204 221 204 204 204 221 204 204 204 153 187 204 204 153 119 119 136 170 204 204 153 153 187 204 204 170 170 204 187 204 204 204 85 85 187 187 187 119 102 170 204 187 136 119 119 187 221 204 204 221 170 119 187 204 153 68 153 187 204 68 34 51 
68 68 85 85 51 68 85 85 85 85 85 85 85 85 85 85 85 119 170 187 187 170 187 187 170 170 153 136 153 153 153 153 136 136 136 136 119 119 136 153 153 153 153 153 170 153 136 119 119 136 85 85 85 85 119 119 119 102 119 119 119 119 85 85 85 102 119 119 102 85 102 102 85 68 85 68 51 51 34 34 
68 68 85 85 85 85 85 85 85 85 85 85 85 85 85 85 85 102 102 187 170 170 187 187 153 170 51 51 153 153 153 153 136 153 153 136 136 136 136 136 153 153 170 170 170 170 153 102 119 102 85 85 102 102 119 119 102 102 102 102 102 85 85 85 85 102 119 102 102 85 85 85 85 85 85 85 51 34 34 34 
68 68 85 85 85 85 85 85 85 85 85 85 85 85 85 85 85 102 102 170 170 170 170 170 170 119 34 34 153 153 153 153 136 153 136 136 119 136 136 136 153 153 170 170 170 170 153 119 119 102 85 85 85 102 119 119 102 102 102 102 102 85 85 85 85 102 102 102 85 85 85 85 85 85 85 85 51 34 34 34 
68 68 85 85 85 85 85 85 85 85 85 85 85 85 85 85 119 136 136 153 170 170 170 170 119 51 34 17 136 170 153 153 153 136 136 119 119 136 136 136 153 153 170 170 153 153 136 119 102 85 85 85 102 85 85 102 102 102 119 102 85 85 85 85 85 85 85 85 85 85 85 85 68 68 68 51 51 51 34 34 
68 85 85 85 85 85 85 85 85 85 85 85 85 85 85 85 102 136 153 153 170 170 170 119 34 34 34 34 102 170 153 153 153 136 136 136 136 119 136 136 153 170 170 170 153 153 136 136 85 85 85 85 85 85 102 102 102 102 119 102 85 85 85 85 85 85 85 85 85 85 85 85 68 68 68 68 51 34 34 34 
68 68 85 85 85 85 85 85 85 85 85 85 85 85 85 85 102 119 136 136 187 204 153 68 17 17 17 34 51 136 153 153 136 153 136 136 136 119 136 136 153 170 170 153 153 170 153 153 85 85 85 85 102 102 119 119 102 102 85 85 85 85 68 85 85 85 102 85 85 85 85 85 68 68 51 51 51 51 34 34 
68 85 85 85 85 85 85 85 85 85 85 85 85 85 85 85 102 119 136 136 153 187 85 34 17 17 17 34 51 136 153 153 136 153 136 136 119 136 136 136 170 170 170 153 170 170 170 153 85 85 85 85 102 102 119 102 85 102 85 85 85 85 85 85 85 85 102 85 85 85 85 85 68 68 51 51 51 51 34 34 
68 68 85 85 85 85 85 85 85 85 85 85 85 85 85 85 85 102 119 119 136 153 68 34 34 17 17 17 17 85 187 153 136 153 153 153 136 136 136 153 153 153 153 153 170 170 170 153 85 85 85 85 85 102 102 102 85 85 85 85 85 68 85 85 85 85 85 85 85 85 85 85 85 68 68 68 68 68 51 51 
68 85 85 85 68 85 85 85 85 85 85 85 85 85 85 85 85 102 119 119 119 119 34 34 17 17 17 17 17 51 170 170 153 153 170 153 136 153 153 153 153 153 153 153 170 170 170 170 85 85 85 85 85 102 102 85 85 85 85 85 68 68 68 85 85 85 85 85 85 85 85 85 68 85 85 68 68 68 51 51 
85 85 85 85 68 85 68 68 85 85 85 85 85 85 85 85 102 136 119 119 119 102 0 17 0 17 17 17 34 34 153 170 170 170 170 153 136 153 153 153 153 136 153 153 170 170 153 136 85 85 85 85 85 85 85 85 85 85 85 85 68 68 68 68 85 85 85 85 85 85 85 85 85 85 85 68 51 51 51 34 
68 85 85 85 68 68 68 68 85 85 85 85 85 85 85 85 85 136 119 102 119 34 0 17 17 0 0 17 34 51 153 170 170 153 170 170 136 153 153 136 153 153 153 136 153 153 153 136 85 85 85 85 85 85 85 85 85 85 85 85 68 68 68 68 85 85 85 85 85 85 85 85 85 85 68 68 51 51 51 51 
68 85 68 68 68 68 51 68 85 85 68 85 85 85 85 85 85 119 102 102 102 68 17 17 0 0 0 0 0 17 119 153 170 170 136 119 119 136 136 136 136 153 136 136 136 153 136 119 85 85 85 85 85 85 85 85 85 85 85 85 68 68 68 68 85 85 85 85 85 85 85 85 68 68 51 51 51 51 51 51 
85 85 68 51 68 68 51 51 85 85 68 68 85 85 85 85 85 119 119 102 102 51 17 17 17 0 17 0 17 17 119 170 170 153 136 119 136 153 136 119 153 153 136 136 153 153 136 102 85 85 85 85 85 85 85 68 85 85 68 68 85 85 51 51 85 85 85 85 68 85 85 85 68 68 68 51 51 51 51 51 
68 68 51 34 68 34 34 34 68 68 51 34 85 85 85 68 68 68 68 102 85 34 34 17 0 0 0 0 0 17 34 153 170 170 153 136 119 68 102 85 102 68 68 68 102 68 85 68 68 68 85 51 85 51 51 34 68 51 68 34 68 34 34 51 68 68 85 85 34 34 34 34 68 51 17 34 34 34 51 51 
68 51 34 34 51 34 34 17 51 51 34 34 85 85 85 51 51 34 34 51 68 51 34 34 0 0 0 17 0 0 17 136 170 170 153 136 68 34 51 34 34 34 34 17 51 34 34 34 51 51 68 51 68 51 34 34 51 34 51 34 51 34 34 34 51 51 51 85 17 17 17 34 34 34 17 17 17 34 51 51 
34 17 85 102 119 17 0 102 34 17 85 34 68 85 51 51 102 102 68 17 34 85 34 0 85 68 0 0 34 85 51 102 170 153 136 136 34 85 34 17 102 17 51 119 102 85 0 34 102 17 17 85 17 34 102 102 102 17 0 51 102 102 68 0 51 85 68 34 17 102 102 51 0 85 51 0 85 51 17 17 
34 34 255 255 255 170 34 255 102 17 238 153 68 85 51 170 255 255 238 34 34 255 119 0 221 187 0 0 17 221 136 102 170 136 136 136 68 255 102 34 255 85 170 255 255 255 34 119 238 34 34 255 68 34 255 255 255 153 0 153 255 255 255 34 34 204 187 17 136 255 255 187 0 238 187 0 255 170 17 34 
34 51 255 238 255 221 51 255 136 17 221 136 85 85 51 187 255 238 255 85 34 255 136 0 238 187 0 0 34 238 136 85 170 170 136 153 85 238 119 51 255 102 170 255 255 255 34 119 238 51 34 238 85 34 255 238 255 221 0 170 255 238 255 102 17 238 187 17 204 255 255 204 0 238 187 17 238 170 34 34 
34 51 255 255 255 238 68 255 153 17 204 119 85 85 51 187 255 255 255 102 17 255 119 0 238 187 0 17 17 238 153 68 170 153 136 153 85 238 102 85 255 102 187 255 238 255 51 119 255 68 34 238 85 34 255 255 255 238 0 153 255 255 255 136 0 238 187 17 238 255 255 204 0 238 187 17 238 170 34 51 
51 51 221 238 255 238 51 238 170 51 238 102 68 85 68 187 255 238 255 119 17 255 136 0 238 187 0 0 17 255 153 51 170 170 170 153 85 238 102 102 255 85 187 255 255 255 34 119 255 85 17 255 68 34 255 255 255 255 17 153 255 238 255 153 0 238 187 34 255 255 255 204 0 238 187 51 238 170 17 34 
51 51 238 238 255 255 51 221 187 68 255 68 68 85 68 170 255 255 255 136 17 255 119 0 238 204 0 0 17 255 153 34 170 170 153 153 68 255 119 119 255 102 170 255 255 255 34 119 255 119 17 255 85 51 255 238 255 255 17 170 255 255 255 170 0 238 187 34 255 238 255 204 0 238 170 68 255 170 34 51 
17 51 255 238 238 255 51 204 204 102 255 51 68 85 34 187 255 221 255 136 34 255 136 0 238 204 0 0 17 255 153 34 170 170 170 153 68 255 119 153 255 51 187 255 221 255 34 119 255 136 17 255 68 34 255 238 238 255 17 170 255 221 255 170 0 255 187 34 255 238 238 204 0 238 187 85 221 119 34 51 
34 51 255 85 85 255 34 170 221 119 255 34 68 68 51 204 204 17 255 136 17 255 119 0 238 187 0 0 17 238 153 17 170 170 170 153 51 255 102 187 221 0 221 204 34 255 51 119 255 170 17 255 85 34 255 102 119 255 17 170 255 17 238 170 0 238 187 51 255 85 136 221 0 238 170 119 238 51 51 68 
34 51 255 85 85 255 34 153 238 153 255 17 34 51 51 204 204 17 255 136 17 255 136 0 238 187 0 0 34 255 153 17 170 170 170 170 102 221 119 204 187 0 221 204 34 255 51 119 255 187 34 255 85 34 255 102 102 255 17 170 255 17 238 187 0 238 187 51 238 68 136 204 0 238 170 153 238 0 34 51 
34 51 238 85 85 255 34 119 255 187 238 0 68 68 34 204 204 17 255 136 17 255 119 0 238 187 0 0 17 255 170 17 170 170 170 170 102 221 136 221 153 17 221 204 17 255 34 119 255 221 34 255 85 34 238 102 102 255 17 170 238 17 238 187 0 238 170 51 238 85 51 119 0 255 187 170 221 17 68 51 
34 51 221 102 85 255 34 102 255 221 204 17 68 85 68 187 221 17 255 136 17 255 119 0 238 187 0 0 17 255 153 17 170 170 153 170 85 238 153 221 119 17 204 221 0 153 0 136 255 221 51 255 85 34 255 102 102 255 17 153 255 17 238 170 0 238 187 51 238 102 34 34 0 238 187 204 170 51 68 85 
34 51 238 102 85 255 17 68 255 238 187 17 85 85 68 170 204 17 255 119 17 255 136 0 238 204 0 0 17 255 170 17 153 170 153 170 102 238 170 238 102 34 204 221 0 0 0 136 255 238 85 255 85 34 255 102 102 255 34 170 255 17 238 170 0 255 187 51 238 102 51 68 17 238 187 221 153 68 85 85 
17 51 255 102 102 255 17 51 255 255 153 17 68 68 34 204 221 17 255 102 17 255 119 0 238 187 0 0 17 238 153 51 170 170 153 136 85 238 187 238 68 0 221 204 34 34 51 136 255 255 102 255 85 34 238 102 102 255 17 170 255 0 238 170 0 255 187 51 238 102 51 85 34 221 204 238 136 34 68 68 
17 51 255 238 255 238 0 34 238 238 136 17 68 51 34 204 255 238 255 85 34 255 136 0 238 187 0 0 17 238 136 85 187 170 153 136 68 238 204 238 34 0 204 255 170 85 136 136 255 238 119 238 85 34 238 102 102 255 17 170 255 153 255 119 0 238 170 51 221 102 51 85 34 238 221 238 102 34 85 68 
34 51 255 238 238 187 0 34 221 238 119 68 85 85 17 204 255 255 255 17 34 255 119 0 238 204 0 0 17 255 153 136 204 187 153 136 85 255 238 238 153 17 204 238 221 102 119 136 238 238 153 238 85 34 255 102 102 255 34 153 255 238 255 85 0 238 187 51 221 85 85 85 34 221 238 255 153 68 85 85 
34 51 255 255 255 85 17 34 204 204 85 68 85 85 17 187 255 255 187 0 51 255 119 0 238 187 0 0 17 255 136 136 187 187 187 187 85 238 255 255 238 34 187 238 221 85 102 136 238 221 187 238 85 34 255 102 102 255 17 153 255 255 238 17 17 238 187 51 204 102 85 85 34 221 238 221 221 102 85 85 
34 68 221 238 255 153 0 17 204 238 68 51 68 85 68 170 255 255 238 17 34 255 136 0 238 204 0 0 17 255 153 136 204 170 170 170 85 238 238 255 255 34 187 255 238 85 102 153 238 204 204 238 85 51 255 102 102 255 17 153 255 255 221 17 17 238 187 51 255 102 51 85 34 221 238 255 255 102 68 85 
34 51 238 238 255 221 17 17 187 255 34 51 68 68 51 187 255 255 255 51 17 255 119 0 238 187 0 0 17 255 153 102 187 170 170 170 85 238 238 255 255 34 187 255 238 68 119 136 238 204 221 238 85 51 238 102 102 238 17 170 255 238 255 85 17 238 187 51 255 85 85 85 34 221 238 238 255 102 68 85 
17 51 255 187 187 238 34 17 170 255 34 34 68 68 51 187 238 136 255 102 17 255 119 0 238 187 0 0 17 255 153 0 51 119 170 170 85 238 238 238 255 34 187 255 153 68 102 136 221 170 238 238 85 51 238 102 102 255 34 153 255 238 255 119 0 238 187 51 204 102 85 85 34 221 255 255 255 102 34 68 
34 51 255 85 85 238 51 17 153 255 17 34 68 51 34 204 204 17 255 119 34 255 136 0 238 204 0 0 17 255 170 0 34 102 170 170 85 238 238 238 255 34 204 221 34 51 68 136 221 136 255 255 85 34 238 102 85 255 34 170 255 17 238 170 0 238 187 51 221 85 68 85 17 221 255 221 255 102 34 51 
34 51 255 102 85 255 68 17 153 221 68 85 85 85 68 170 204 17 255 136 17 255 119 0 238 170 51 204 17 255 136 68 187 68 170 153 102 204 102 102 238 34 187 221 34 17 17 153 221 119 255 255 85 34 255 102 102 255 34 170 255 0 238 170 0 238 187 51 238 102 0 17 0 238 187 34 204 102 85 85 
34 51 238 85 85 255 51 17 153 221 51 68 85 85 51 187 204 17 255 136 17 255 136 0 255 170 85 255 51 255 136 119 238 85 170 136 85 221 102 102 255 34 204 221 34 85 17 136 221 85 255 255 85 34 255 102 102 255 17 170 255 17 238 187 0 238 187 51 238 85 34 102 0 238 187 34 221 102 85 85 
34 51 221 102 85 255 68 17 170 238 51 68 68 68 51 187 221 17 255 136 17 255 119 0 238 170 85 255 51 255 136 119 238 102 204 153 85 238 102 85 255 34 204 204 34 238 51 136 238 68 255 238 85 34 255 102 85 255 17 153 255 17 238 187 0 238 170 51 255 68 119 221 0 238 187 51 221 102 68 68 
34 51 238 102 85 255 68 0 153 238 68 68 68 51 34 204 204 17 255 153 17 255 136 0 238 187 85 255 68 255 136 119 238 85 204 136 68 238 102 102 255 34 204 204 34 238 68 119 238 51 238 238 85 34 255 102 102 255 34 170 255 0 221 187 0 255 187 51 255 68 136 238 0 238 187 34 238 102 51 68 
17 51 255 85 85 238 68 17 153 255 17 51 51 68 51 187 204 17 255 136 17 255 119 0 238 170 85 255 51 255 136 119 221 102 187 119 34 255 102 102 255 17 204 204 17 255 51 136 238 17 238 255 68 34 255 102 102 255 17 170 238 17 238 187 0 238 187 51 255 68 136 238 0 238 187 34 238 102 17 51 
17 51 255 153 153 238 51 17 170 255 34 34 68 68 34 204 238 85 255 136 51 255 136 0 255 204 136 255 68 255 187 153 221 102 170 119 51 255 102 102 255 68 204 238 102 255 68 136 238 17 221 255 85 51 255 153 153 255 34 170 255 17 221 204 0 255 204 51 255 136 170 238 17 238 187 34 238 119 17 51 
17 136 255 238 255 255 51 34 238 255 85 34 51 51 51 238 255 238 255 119 102 255 187 68 255 255 255 238 136 255 255 255 221 85 153 119 119 255 102 85 255 187 238 255 255 255 85 204 238 0 187 255 153 136 255 238 255 238 68 238 238 17 221 238 102 255 238 85 255 255 255 204 68 255 170 34 238 204 68 85 
17 136 255 255 238 255 34 34 238 255 119 17 68 34 68 238 255 255 255 119 136 255 204 85 255 238 255 238 153 255 238 255 221 85 170 136 136 255 102 102 255 204 238 255 255 255 85 221 238 0 170 255 170 153 255 255 255 238 68 238 238 17 221 238 119 255 238 102 255 238 255 204 85 255 170 51 221 187 51 85 
17 136 238 255 255 255 34 34 238 238 102 51 68 68 68 204 255 238 255 102 136 255 204 85 255 255 255 238 153 238 238 255 221 85 187 136 136 255 102 85 255 204 238 255 255 255 85 221 238 0 136 255 170 153 255 255 255 238 51 238 238 17 221 238 119 255 255 85 238 255 255 204 85 255 170 34 255 204 68 85 
17 153 255 238 255 238 17 34 238 221 102 51 85 51 68 221 255 255 255 85 119 255 187 85 255 255 255 238 153 238 255 255 221 85 153 136 136 255 102 102 255 221 238 255 238 255 85 221 238 17 119 255 170 153 255 255 255 221 34 255 238 17 221 238 119 255 255 51 221 255 255 204 85 255 170 51 255 204 68 85 
17 153 255 255 255 204 17 34 238 238 102 51 34 0 51 238 255 255 255 51 136 255 204 85 255 255 255 238 153 238 238 238 204 102 170 136 136 255 102 102 255 204 238 255 255 255 85 221 238 17 102 255 170 153 255 238 255 170 17 255 221 17 204 238 119 255 255 34 187 255 255 204 85 255 170 34 255 204 34 68 
17 102 255 238 238 119 17 17 204 255 68 51 34 17 34 238 238 238 204 0 102 255 170 51 238 238 238 204 85 238 238 221 187 102 170 119 102 255 68 51 255 153 221 238 238 238 51 204 204 34 51 255 136 102 255 238 255 85 0 238 204 17 170 204 68 255 238 0 85 255 255 153 34 255 136 17 255 170 17 68 
17 17 34 17 17 17 17 17 34 34 17 51 34 34 0 17 17 17 0 0 17 17 0 0 17 17 17 17 0 17 17 17 34 68 187 102 51 34 17 17 17 17 17 17 34 17 17 17 0 68 51 51 34 17 17 17 51 34 34 17 17 17 34 34 17 34 51 51 17 34 51 51 17 34 34 51 34 34 68 85 
17 0 17 34 17 17 34 17 34 51 17 51 34 17 0 0 0 0 0 0 0 0 0 0 0 0 0 0 0 0 0 0 51 119 170 119 34 34 34 51 17 17 0 0 34 51 17 17 17 85 68 51 34 17 17 17 51 68 34 17 17 17 51 51 17 34 34 68 17 34 34 51 17 34 34 51 34 51 68 85 
34 34 51 51 51 51 34 51 68 68 68 68 17 17 0 17 0 0 34 17 0 0 0 0 0 0 0 0 0 17 0 68 153 170 153 153 119 136 136 153 119 136 136 136 153 153 153 136 136 119 102 85 85 85 68 68 85 85 85 85 51 85 85 85 51 68 85 85 68 68 85 85 51 51 85 85 51 51 85 85 
34 34 51 51 51 51 51 51 85 85 68 68 17 17 0 0 0 0 0 0 0 0 0 0 0 0 0 0 0 17 17 102 170 170 153 170 153 153 153 170 136 136 136 136 170 170 170 136 153 119 102 85 85 85 85 85 85 85 85 85 85 85 85 85 85 85 85 85 85 85 85 85 85 85 85 85 85 68 85 85 
68 51 68 51 51 68 68 68 68 68 85 68 0 0 0 0 0 17 0 0 0 0 0 0 17 0 0 0 0 17 0 102 170 170 170 170 170 170 170 170 136 136 136 136 136 153 153 136 102 85 85 85 85 85 85 85 85 85 85 85 85 85 85 85 85 85 85 85 85 85 85 85 85 85 85 85 85 85 85 85 
51 51 51 51 51 51 68 68 68 68 85 68 0 0 17 0 0 0 0 0 0 0 0 0 0 0 0 0 17 0 17 119 170 153 170 170 170 170 170 170 153 119 136 119 153 153 136 136 102 85 85 85 85 85 85 85 85 85 85 85 85 85 85 85 85 85 85 85 85 85 85 85 85 85 85 85 85 85 85 85 
68 51 51 68 68 68 68 68 68 68 34 17 0 0 0 0 0 0 0 0 0 0 0 0 0 0 0 0 17 17 17 119 170 153 153 170 170 170 170 170 153 136 136 119 153 153 136 136 85 85 85 85 85 85 85 85 85 85 85 85 85 85 85 85 85 85 85 85 85 85 85 85 85 85 85 85 85 85 85 85 
68 68 68 68 68 68 68 68 51 51 51 17 0 0 0 0 0 0 0 0 0 17 0 0 0 0 0 17 17 17 17 136 153 136 153 170 170 170 170 170 153 136 136 136 153 153 136 119 85 85 85 85 85 85 85 85 85 85 85 85 85 85 85 85 85 85 85 85 85 85 85 85 85 85 85 85 85 85 85 85 
51 68 51 68 68 68 68 68 68 85 85 51 0 0 0 0 0 0 0 0 0 0 0 0 0 0 0 0 17 17 17 119 170 136 136 153 170 170 170 170 136 119 119 119 102 102 85 85 85 85 85 85 85 85 85 85 85 85 85 85 85 85 85 85 85 85 85 85 85 85 85 85 85 85 85 85 85 85 85 85 
68 51 51 68 68 68 68 68 68 85 68 51 0 0 0 0 0 0 0 0 0 0 0 0 0 0 0 0 17 51 51 119 153 153 170 153 170 153 170 170 119 119 136 119 102 102 85 85 85 85 85 85 85 85 85 85 85 85 85 85 85 85 85 85 85 85 85 85 85 85 85 85 85 85 85 85 85 85 85 85 
68 51 68 68 68 68 68 68 51 51 68 51 0 0 0 0 0 0 0 0 0 0 0 0 0 0 17 0 68 136 102 102 170 170 170 170 170 170 170 170 119 119 119 119 102 102 85 85 85 85 85 85 85 85 85 85 85 85 85 85 85 85 85 85 85 85 85 85 85 85 85 85 85 85 85 85 85 85 85 85 
68 68 51 51 68 68 68 68 68 34 34 34 0 17 0 0 0 0 17 0 0 0 0 0 0 0 0 0 85 136 153 119 170 170 170 170 170 170 170 170 136 136 102 102 85 85 85 85 85 85 85 85 85 85 85 85 85 85 85 85 85 85 85 85 85 85 85 170 102 85 85 85 85 85 85 85 85 85 85 85 
68 51 68 68 68 68 68 68 68 51 0 17 0 0 0 0 0 0 0 17 0 0 17 0 0 17 17 17 85 102 153 119 153 153 153 170 170 170 170 170 119 136 136 102 85 85 85 85 85 85 85 85 85 85 85 85 85 85 85 85 85 85 85 85 85 119 238 255 187 85 85 85 85 85 85 85 85 85 85 85 
68 68 68 68 68 68 68 68 51 34 17 17 0 0 0 0 0 0 0 0 0 0 0 0 0 17 17 17 85 102 170 119 153 153 170 170 170 170 170 153 119 136 119 102 85 85 85 85 85 85 85 85 85 85 85 85 85 85 85 85 85 85 85 85 85 204 255 238 204 153 85 85 85 85 85 85 85 85 85 85 
68 68 68 68 68 68 68 68 51 34 17 17 0 0 0 0 0 0 0 0 0 0 0 0 0 0 34 34 119 136 170 136 153 153 170 170 170 170 170 153 119 119 119 102 85 85 85 85 85 85 85 85 85 85 85 85 85 85 85 85 85 85 85 85 102 204 238 255 238 204 85 85 85 85 85 85 85 85 85 85 
68 68 68 68 68 68 68 68 51 34 17 17 0 0 0 0 0 0 0 0 0 0 0 0 0 0 34 51 102 136 153 136 136 153 170 170 170 170 170 136 102 119 119 102 85 85 85 85 85 85 85 85 85 85 85 85 85 85 85 85 85 85 85 85 187 221 238 238 238 204 119 85 85 85 85 85 85 85 85 85 
68 68 68 68 68 85 85 85 17 0 17 0 0 0 0 0 0 17 0 0 0 0 0 17 0 0 0 0 34 119 136 119 119 119 170 153 170 170 170 170 153 136 136 119 85 85 85 85 85 85 85 85 85 85 85 85 85 85 85 85 85 85 85 136 238 187 221 153 102 204 221 102 85 85 85 85 85 85 85 85 
68 68 85 68 68 85 68 85 17 0 0 0 0 0 0 0 0 0 0 0 0 0 0 0 0 0 0 0 17 119 136 119 119 136 187 170 170 170 170 170 153 153 119 102 85 85 85 85 85 85 85 85 85 85 85 85 85 85 85 85 85 85 85 221 238 170 170 136 102 204 204 187 85 85 85 85 85 85 85 85 
68 68 85 85 85 85 85 85 17 17 0 0 0 0 0 0 0 0 0 0 0 0 0 0 0 0 0 0 51 119 136 136 136 136 187 170 170 170 170 170 119 102 102 102 85 85 85 85 85 85 85 85 85 85 85 85 85 85 85 85 85 85 187 204 119 170 170 170 119 170 119 187 102 85 85 85 85 85 85 85 
68 85 85 85 85 85 85 85 17 17 0 0 0 0 0 0 0 0 0 0 0 0 0 0 0 0 0 17 34 119 153 136 136 153 187 170 170 170 170 170 119 85 85 85 85 85 85 85 85 85 85 85 85 85 85 85 85 85 85 85 85 85 221 136 153 170 170 153 102 187 102 153 204 85 85 85 85 85 85 85 
85 85 68 85 85 85 85 85 17 0 0 0 17 0 0 0 0 0 0 0 0 0 0 17 0 0 17 17 34 68 170 119 119 136 187 187 170 187 136 119 119 102 85 85 85 85 85 85 85 85 85 85 85 85 85 85 85 85 85 85 85 85 187 170 153 170 170 119 102 187 119 204 170 85 85 85 85 85 85 85 
85 68 85 85 85 85 85 85 17 0 0 0 0 0 0 0 0 0 17 0 0 0 0 0 0 0 0 17 17 68 153 119 119 136 187 187 187 187 136 136 102 102 85 85 85 85 85 85 85 85 85 85 85 85 85 85 85 85 85 85 85 85 170 187 102 187 153 136 136 187 102 238 153 85 85 85 85 85 85 85 
85 68 68 85 85 85 51 34 0 0 0 0 0 0 0 0 0 0 0 0 0 0 0 0 0 17 17 17 34 85 153 136 136 136 170 170 187 153 136 119 102 85 85 85 85 85 85 85 85 85 85 85 85 85 85 85 85 85 85 85 85 85 153 187 119 204 153 153 136 153 119 221 119 85 85 85 85 85 85 85 
85 85 68 85 68 68 51 34 0 0 0 0 0 0 0 0 0 0 0 0 0 0 0 0 0 0 17 34 34 68 136 119 136 170 170 170 170 136 136 136 102 85 85 85 85 85 85 85 85 85 85 85 85 85 85 85 85 85 85 85 85 85 102 187 136 187 153 187 153 136 153 221 85 85 85 85 85 85 85 85 
85 68 85 85 85 85 85 85 0 0 0 0 0 0 0 0 0 0 0 0 0 0 0 0 0 0 0 17 0 17 136 102 102 136 153 170 170 153 136 136 85 85 85 85 85 85 85 85 85 85 85 85 85 85 85 85 85 85 85 85 85 85 85 170 153 255 238 238 221 170 85 187 85 85 85 85 85 85 85 85 
85 68 85 85 85 85 85 68 0 0 0 0 0 0 0 0 0 0 0 0 0 0 0 0 0 0 0 0 0 0 102 102 119 119 153 153 187 136 136 136 85 85 85 85 85 85 85 85 85 85 85 85 85 85 85 85 85 85 85 85 85 85 85 136 187 255 238 221 238 221 136 153 85 85 85 85 85 85 85 85 
85 68 85 85 85 85 85 68 0 17 0 0 0 0 0 0 0 0 0 17 0 0 0 0 0 0 0 0 34 34 102 102 119 119 136 170 170 153 153 136 85 85 85 85 85 85 85 85 85 85 85 85 85 85 85 85 85 85 85 85 85 85 85 119 238 238 204 187 238 238 221 136 85 85 85 85 85 85 85 85 
85 68 85 85 85 85 85 68 0 0 0 0 0 0 0 0 0 0 0 0 0 0 0 0 0 0 0 0 34 51 85 102 102 51 85 170 170 170 153 136 85 85 85 85 85 85 85 85 85 85 85 85 85 85 85 85 85 85 85 85 85 85 85 85 238 221 102 85 136 221 204 85 85 85 85 85 85 85 85 85 
85 85 85 85 85 85 85 68 0 17 0 0 0 0 0 0 0 0 0 17 0 0 17 0 0 0 0 0 34 17 34 119 34 17 17 119 136 119 102 85 85 85 85 85 85 85 85 85 85 85 85 85 85 85 85 85 85 85 85 85 85 85 85 85 221 102 85 85 85 85 170 85 85 85 85 85 85 85 85 85 
85 85 85 85 85 85 119 68 0 0 0 0 0 0 0 0 0 0 0 0 0 0 0 0 0 0 0 0 17 17 51 102 17 17 17 51 136 102 85 85 85 85 85 85 85 85 85 85 85 85 85 85 85 85 85 85 85 85 85 85 85 85 85 85 136 85 85 85 85 85 85 85 85 85 85 85 85 85 85 85 
85 85 85 85 85 102 136 51 0 0 0 0 0 0 0 0 0 0 0 0 0 0 0 0 0 0 0 0 17 17 51 51 17 17 34 34 119 136 85 85 68 85 85 85 85 85 85 85 85 85 85 85 85 85 85 85 85 85 85 85 85 85 85 85 85 85 85 85 85 85 85 85 85 85 85 85 85 85 85 85 
85 85 85 85 85 119 153 34 17 0 0 0 0 0 0 0 0 0 0 0 0 0 0 0 0 0 17 17 17 17 34 34 17 34 34 51 85 136 85 68 68 85 85 85 85 85 85 85 85 85 85 85 85 85 85 85 85 85 85 85 85 85 85 85 85 85 85 85 85 85 85 85 85 85 85 85 85 85 85 85 
85 85 85 85 85 102 102 51 34 34 0 0 0 0 0 0 0 0 0 0 0 0 0 17 0 0 0 0 0 0 0 0 0 0 0 0 34 136 51 34 68 68 68 85 85 85 85 85 85 85 85 85 85 85 85 85 85 85 153 136 85 85 85 85 85 85 85 85 85 85 85 85 85 85 85 102 119 85 85 85 
85 85 85 85 85 102 102 51 17 17 0 0 0 0 0 0 0 0 0 17 0 0 0 0 0 0 0 0 0 0 0 17 0 0 17 0 34 68 34 34 68 68 68 68 85 85 85 85 85 85 85 85 85 85 85 85 85 85 170 187 85 85 85 85 85 85 85 85 85 85 85 85 85 85 85 153 136 85 85 85 
85 85 85 85 85 102 51 17 17 17 17 0 0 0 0 0 0 0 0 0 0 0 0 0 0 0 0 0 17 0 0 0 0 0 0 0 17 34 17 17 68 68 85 85 85 85 85 85 85 85 85 85 85 85 85 85 85 85 153 221 85 85 85 85 85 85 102 153 85 85 85 85 85 85 85 204 153 85 85 85 
85 85 85 85 85 85 68 34 17 17 17 0 17 0 0 0 0 0 0 0 0 0 0 0 0 17 0 0 0 0 0 0 17 0 0 0 17 17 17 17 68 68 68 85 85 85 85 85 85 85 85 85 85 85 85 85 85 85 170 221 85 85 85 85 85 85 187 255 170 85 85 85 85 85 119 221 153 85 85 85 
85 85 85 85 102 119 68 34 0 0 0 0 0 0 0 0 0 17 0 0 0 17 0 0 0 0 0 0 0 17 0 0 0 0 0 0 17 17 17 17 51 51 68 85 85 85 85 85 85 85 85 85 85 85 85 85 85 85 221 238 136 85 85 85 85 153 221 238 221 153 85 85 85 85 187 238 221 102 85 85 
85 85 85 85 119 119 51 34 0 0 0 0 0 0 0 0 0 0 0 0 0 0 0 0 0 0 0 0 0 0 0 17 17 0 0 17 17 17 17 0 51 68 68 68 85 85 85 85 85 85 102 102 85 85 85 85 85 119 238 238 204 85 85 85 102 238 221 238 238 187 85 85 85 85 221 238 204 85 85 85 
85 85 85 85 119 119 136 68 0 0 0 0 0 0 0 0 0 0 0 0 0 0 0 0 0 0 0 0 0 0 0 0 0 0 0 0 0 17 0 0 51 68 85 85 85 85 85 85 85 85 85 102 102 85 85 85 85 85 221 204 153 85 85 85 170 238 255 255 238 238 136 85 85 102 204 238 221 119 85 85 
85 85 85 85 136 136 153 85 0 17 0 17 0 0 0 0 0 0 0 0 0 0 0 0 0 0 0 0 0 0 0 0 17 0 0 0 0 17 0 0 68 85 85 85 85 85 102 85 85 85 102 102 102 85 85 85 85 85 204 153 136 102 85 85 204 255 238 255 238 255 170 85 85 136 221 187 221 136 85 85 
85 85 85 85 119 153 153 68 0 0 0 0 0 0 0 0 0 0 0 0 0 0 0 0 0 0 0 0 0 0 0 0 0 0 0 0 17 17 17 0 17 51 68 102 102 102 102 85 85 85 102 102 85 85 85 85 85 85 187 170 153 136 85 85 204 187 153 221 153 187 204 102 85 153 204 85 170 136 85 85 
85 85 85 85 102 153 153 51 0 0 0 0 17 0 0 0 0 0 0 0 0 17 0 0 0 0 0 0 0 0 17 0 17 17 0 17 17 17 17 0 17 51 85 102 102 102 102 85 85 85 102 102 85 85 85 85 85 119 187 170 170 119 85 102 170 85 102 221 102 85 170 119 85 136 221 85 136 153 85 85 
85 85 85 85 85 102 102 51 0 0 0 0 0 0 0 0 0 0 0 0 0 0 0 0 0 0 0 0 0 0 0 0 102 85 0 0 17 34 34 34 68 85 85 85 102 102 102 85 85 85 102 85 85 85 85 85 85 187 204 136 119 102 85 119 170 85 119 238 85 85 153 136 85 102 204 85 136 187 85 85 
85 85 85 85 85 85 102 34 0 0 0 0 0 0 0 0 0 0 0 0 0 0 0 0 0 0 0 0 0 0 0 0 102 102 0 0 17 34 34 34 85 85 85 85 119 119 119 102 85 85 85 85 85 85 85 85 85 187 187 170 153 85 85 136 170 85 102 221 85 85 170 170 85 85 170 85 119 204 85 85 
85 85 85 85 85 85 85 51 0 0 0 0 0 0 0 0 0 0 0 0 0 0 0 0 0 0 0 0 0 17 0 0 102 68 17 17 17 17 51 51 85 85 85 85 102 102 119 102 85 102 102 102 85 85 85 85 119 238 170 119 136 85 85 153 204 102 119 187 102 85 204 204 85 85 119 85 102 204 102 85 
85 85 85 85 85 102 85 51 17 0 0 0 0 0 0 0 0 0 0 17 17 0 0 0 0 0 0 17 0 0 0 0 85 68 17 17 0 17 68 85 85 85 85 85 119 119 102 102 85 85 102 85 85 85 85 85 102 238 187 119 136 85 85 187 204 153 170 170 136 153 221 204 85 85 153 85 136 221 85 85 
85 85 85 85 85 85 51 0 0 0 0 0 17 0 0 0 0 0 0 0 0 0 0 0 0 0 0 0 0 0 0 0 68 34 34 34 17 51 85 85 85 102 85 85 119 136 136 102 85 85 85 85 85 85 85 85 119 221 204 170 136 85 85 187 238 221 119 85 170 204 221 221 85 85 170 119 136 204 102 85 
102 85 85 85 68 85 34 0 0 0 0 0 0 0 0 0 0 0 0 0 0 0 0 0 0 0 0 0 0 0 0 17 51 34 17 34 34 85 85 85 85 85 102 85 119 136 136 119 85 85 85 85 85 85 85 85 153 221 187 102 136 85 85 204 221 204 153 85 204 238 221 187 85 85 153 119 136 204 102 85 
119 119 136 136 136 102 68 51 0 0 17 0 0 0 0 0 0 0 0 0 0 0 0 0 0 0 0 0 0 0 0 0 17 17 34 34 68 85 85 85 85 102 102 102 119 102 102 85 85 85 85 85 85 85 85 85 119 204 204 153 153 85 85 187 255 255 238 102 153 221 255 238 102 85 136 170 153 221 153 85 
119 136 153 136 136 119 34 34 0 0 0 0 0 0 0 0 0 0 0 0 0 0 17 0 0 0 0 0 17 0 0 0 17 17 34 34 85 85 85 85 85 102 102 119 119 102 85 85 85 85 85 85 85 85 85 85 170 221 187 153 153 85 102 204 238 238 255 119 136 221 255 238 102 85 153 153 170 238 153 85 
119 136 136 153 136 119 34 17 0 0 0 0 0 0 0 0 0 0 0 0 0 0 0 0 0 17 0 0 0 0 0 0 17 17 51 51 102 85 85 85 85 85 119 136 136 119 85 85 85 85 85 85 85 85 85 85 170 238 204 119 136 85 85 204 238 221 187 85 136 221 221 238 85 85 170 119 136 221 119 85 
119 102 153 136 119 85 17 17 0 0 0 0 0 0 0 0 0 0 0 0 0 0 0 0 0 0 0 0 0 0 0 0 0 17 51 85 85 85 85 85 85 85 119 136 136 119 85 85 85 85 85 85 85 85 85 85 153 221 204 170 153 85 102 204 221 187 136 102 85 119 238 238 85 85 170 119 153 221 136 85 
136 136 136 136 119 102 51 34 0 0 0 0 0 0 0 0 0 0 0 0 0 0 0 0 0 0 0 0 0 0 0 0 0 17 17 119 102 85 85 85 85 85 85 102 153 119 102 85 85 85 85 85 85 85 85 85 170 238 170 119 170 85 85 187 238 170 85 85 85 85 238 238 85 85 170 136 153 221 136 85 
136 170 153 136 119 102 34 34 0 0 0 0 0 0 0 0 0 0 0 0 0 0 0 0 0 0 0 0 0 0 0 0 0 34 102 136 102 85 85 85 85 85 102 119 153 119 102 102 85 85 85 85 85 85 85 85 153 221 170 119 170 85 85 204 238 170 85 85 170 136 221 238 85 85 153 170 170 238 119 85 
119 153 153 136 119 34 17 17 0 0 0 0 0 0 17 0 0 17 0 0 0 0 0 0 17 0 0 0 0 0 0 17 51 102 119 119 102 85 85 85 85 102 102 119 153 136 119 136 85 85 85 85 85 85 85 85 136 221 170 170 170 85 85 187 238 221 119 136 221 221 238 238 85 85 136 119 153 238 136 85 
119 153 153 119 119 34 17 17 0 0 0 0 0 0 0 0 0 0 0 0 17 0 0 0 0 0 0 0 0 0 0 0 51 102 119 119 85 85 85 85 85 102 119 119 153 136 119 153 85 85 85 85 85 85 85 85 136 238 136 119 187 85 85 187 238 221 187 102 204 238 238 221 85 85 170 119 136 221 119 85 
119 153 153 136 102 51 34 34 17 17 0 0 0 0 0 0 0 0 0 0 0 0 0 0 0 0 0 0 0 0 0 0 34 68 85 102 102 85 85 85 85 85 102 102 119 136 136 136 102 85 85 85 85 85 85 85 119 221 170 119 187 85 85 170 255 255 187 136 170 221 238 204 85 85 170 102 136 221 85 85 
102 136 153 136 102 34 34 34 17 17 0 0 0 0 0 0 0 0 0 0 0 0 0 0 0 0 0 0 17 0 0 0 51 85 85 85 85 85 85 85 85 85 85 85 136 136 136 136 102 85 85 102 85 85 85 85 119 221 153 136 187 102 85 170 255 255 170 187 170 238 238 170 85 102 153 85 102 187 85 85 
102 119 136 119 85 34 0 0 17 0 0 0 0 0 0 0 0 0 17 0 0 0 0 0 0 0 0 0 0 0 0 0 34 68 102 85 85 85 85 85 85 85 85 85 153 136 136 153 102 102 85 85 85 85 85 85 85 204 136 119 170 102 85 136 238 221 153 238 153 221 238 153 85 102 136 85 85 170 85 85 
102 102 119 119 68 17 0 0 0 0 0 0 0 0 0 0 0 0 0 0 0 0 0 0 0 17 0 0 0 0 0 0 34 51 85 85 85 85 85 85 85 85 85 85 136 153 136 136 119 119 85 85 85 85 85 85 85 170 170 153 187 102 85 102 221 170 136 255 119 170 238 153 85 119 119 85 85 170 85 85 
102 102 102 85 85 51 17 17 0 0 0 0 0 0 0 17 0 0 0 0 0 0 17 0 0 0 0 0 0 17 0 0 51 68 85 85 85 85 85 85 85 85 85 85 119 153 136 136 136 136 119 102 85 85 85 85 85 153 153 170 204 136 85 85 238 187 170 238 153 187 204 85 85 136 136 85 85 119 85 85 
102 102 102 85 85 51 17 17 0 0 0 0 0 0 0 0 0 0 17 0 0 0 0 0 0 0 0 0 0 0 0 0 51 68 85 85 85 85 85 85 85 85 85 85 102 136 153 136 136 153 85 85 85 85 85 85 85 119 153 170 221 153 85 85 221 221 204 238 187 204 204 85 85 136 119 85 85 119 85 85 
102 119 102 85 85 34 34 17 0 0 0 0 0 0 0 0 0 0 0 0 0 0 0 0 0 0 0 0 0 0 0 17 34 51 85 85 85 85 85 85 85 85 85 85 102 102 136 136 119 119 85 85 85 85 85 85 85 102 204 204 204 119 85 85 187 238 238 255 238 238 153 85 85 153 187 153 170 119 85 85 
102 102 85 102 85 51 34 17 0 0 0 0 0 0 0 0 0 0 0 0 0 0 0 0 0 0 0 0 0 0 0 0 34 34 85 85 85 85 85 85 102 85 85 85 85 85 136 119 119 136 85 85 85 85 85 85 85 85 238 238 221 85 85 85 153 255 255 255 255 238 102 85 85 119 238 221 204 85 85 68 
102 102 85 85 68 0 0 0 0 0 0 0 0 0 0 0 0 0 0 0 0 0 17 0 0 0 0 0 0 0 0 0 17 34 85 85 85 85 85 85 85 85 85 85 85 85 136 136 136 136 102 102 85 85 85 85 85 85 238 255 221 85 85 85 85 187 221 238 255 238 85 85 85 85 170 221 204 102 85 68 
102 102 85 85 85 0 17 17 0 0 0 0 0 0 0 0 0 0 17 0 0 0 0 0 0 0 0 0 0 0 0 17 17 34 85 68 85 85 85 85 85 85 85 85 85 85 119 119 136 119 85 85 85 85 85 85 85 85 221 238 170 85 85 85 85 119 221 238 238 170 85 85 85 85 170 221 187 85 85 68 
102 102 85 85 85 34 17 17 0 0 0 0 0 17 0 0 0 0 0 0 0 0 0 0 0 0 0 0 0 0 0 0 17 17 51 68 85 85 85 85 85 85 85 85 85 85 102 102 119 102 85 85 85 85 85 85 85 85 170 238 85 85 85 85 85 85 170 204 187 85 85 85 85 85 119 221 187 85 85 68 
85 102 85 85 102 51 17 17 17 0 0 0 0 0 0 0 0 0 0 0 0 0 0 0 0 0 0 0 0 0 0 0 17 17 51 68 85 85 85 85 85 85 85 85 85 85 102 102 119 102 85 85 85 85 85 85 85 85 187 204 85 85 85 85 85 85 85 85 85 85 85 85 85 85 102 221 153 85 85 85 
85 85 85 85 85 68 51 34 0 0 0 0 0 0 0 0 0 0 0 0 0 0 0 0 0 0 0 0 0 0 0 0 51 68 85 85 85 85 85 85 85 85 85 85 85 85 85 102 136 119 85 85 85 85 85 85 85 85 170 153 85 85 85 85 85 85 85 85 85 85 85 85 85 85 85 153 153 85 85 85 
85 85 85 85 102 34 34 34 0 0 0 0 0 0 0 0 0 0 0 0 0 0 0 0 0 0 0 0 0 0 0 0 34 68 85 85 85 85 85 85 85 85 85 85 85 85 85 102 102 102 85 85 85 85 85 85 85 85 153 102 85 85 85 85 85 85 85 85 85 85 85 85 85 85 85 102 136 85 85 85 
85 85 85 85 102 17 0 0 0 0 0 0 0 0 0 0 0 0 0 0 0 0 0 0 0 0 17 0 0 0 0 0 34 51 85 85 85 85 85 85 85 85 85 85 85 85 85 85 85 85 85 85 85 85 85 85 85 85 102 85 85 85 85 85 85 85 85 85 85 85 85 85 85 85 85 85 102 85 85 85 
85 85 85 85 68 17 0 0 0 0 0 0 0 0 0 0 0 0 0 17 0 0 0 0 0 0 0 0 0 0 17 0 34 51 85 85 85 85 85 85 85 85 85 85 85 85 85 85 85 85 85 85 85 85 85 85 85 85 85 85 85 85 85 85 85 85 85 85 85 85 85 85 85 85 85 85 85 85 85 85 
85 85 85 85 85 51 34 34 0 0 0 0 0 0 0 0 0 0 17 0 0 0 0 0 0 0 0 0 0 0 0 0 34 68 85 85 85 85 85 85 85 85 85 85 85 85 85 85 85 85 85 85 85 85 85 85 85 85 85 85 85 85 85 85 153 85 85 85 85 85 119 85 85 85 85 85 85 85 85 85 
85 85 85 102 85 51 17 34 0 0 0 0 0 0 0 0 0 0 0 0 0 0 0 0 0 0 0 0 0 0 0 0 17 51 85 85 85 85 85 85 85 85 85 85 85 85 85 85 85 85 85 85 85 85 85 85 85 85 85 85 85 85 85 85 238 170 85 85 85 102 187 85 85 85 85 85 85 85 85 85 
85 85 68 85 51 0 17 17 0 0 0 0 0 0 0 17 0 0 0 0 0 17 0 0 17 0 17 17 0 0 0 0 68 85 85 85 85 85 85 85 85 85 85 85 85 85 85 85 85 85 85 85 85 85 85 85 85 85 85 85 85 85 85 85 238 238 153 136 119 238 238 102 85 85 85 85 85 85 85 85 
85 85 51 68 34 17 17 17 0 0 0 0 0 0 0 0 0 0 0 0 0 0 0 0 17 17 0 17 0 0 0 0 51 85 85 85 85 85 85 85 85 85 85 85 85 85 85 85 85 85 85 85 85 85 85 85 85 85 85 85 85 85 85 102 204 238 221 238 204 221 170 119 85 85 85 85 85 85 85 85 
102 68 17 17 17 17 0 0 0 0 17 0 0 0 0 0 0 0 0 0 0 0 0 0 51 34 34 17 0 0 17 17 51 68 85 85 85 85 85 85 85 85 85 85 85 85 85 85 85 85 85 85 85 85 85 85 85 85 85 85 85 85 85 119 85 187 221 255 221 187 102 170 85 85 85 85 85 85 85 85 
102 68 17 17 17 17 0 0 0 0 0 0 0 17 0 0 0 0 0 0 0 0 0 17 51 34 17 17 0 0 0 17 68 68 85 85 85 85 85 85 85 85 85 85 85 85 85 85 85 85 85 85 85 85 85 85 85 85 85 85 85 85 85 136 85 170 221 238 204 136 102 204 85 85 85 85 85 85 85 85 
85 85 34 17 0 0 0 0 0 0 0 0 0 0 0 0 0 0 0 0 0 0 0 17 51 34 0 0 0 0 17 17 68 85 85 85 85 85 85 85 85 85 85 85 85 85 85 85 85 85 85 85 85 85 85 85 85 85 85 85 85 85 102 153 119 136 85 136 85 136 119 204 85 85 85 85 85 85 85 85 
85 85 51 17 0 17 0 0 0 0 0 0 0 0 0 0 0 0 0 0 0 0 0 0 51 17 0 0 0 0 34 34 68 68 85 85 85 85 85 85 85 85 85 85 85 85 85 85 85 85 85 85 85 85 85 85 85 85 85 85 85 85 153 153 119 119 85 119 102 153 136 170 119 85 85 85 85 85 85 85 
85 85 85 68 0 0 0 0 0 0 0 0 0 0 0 0 0 0 0 0 17 0 0 17 34 34 17 17 17 17 17 51 85 85 85 85 85 85 85 85 85 85 85 85 85 85 85 85 85 85 85 85 85 85 85 85 85 85 85 68 85 85 153 136 136 136 136 187 136 153 170 187 187 85 85 85 85 85 85 85 
85 85 85 85 17 0 0 0 0 0 0 0 0 0 0 0 0 0 0 0 0 0 0 17 34 34 17 17 17 34 17 51 85 85 85 85 85 85 85 85 85 85 85 85 85 85 85 85 85 85 85 85 85 85 85 85 85 85 85 85 85 85 204 102 119 153 85 170 85 170 187 153 221 85 85 85 85 85 85 85 
85 85 85 85 17 0 0 0 0 17 0 0 0 0 0 0 0 0 0 0 0 0 0 0 34 51 17 17 34 34 85 85 85 85 85 85 85 85 85 85 85 85 85 85 85 85 85 85 85 85 85 85 85 85 85 85 85 85 85 85 85 85 221 153 85 153 136 204 85 221 204 204 170 85 85 85 85 85 85 85 
85 85 85 85 17 0 0 0 0 0 0 0 0 0 0 0 0 0 0 0 0 0 0 0 17 34 17 17 51 68 85 85 85 85 85 85 85 85 85 85 85 85 85 85 85 85 85 85 85 85 85 85 85 85 85 85 85 85 85 85 85 85 153 221 170 187 153 204 136 204 221 238 85 85 85 85 85 85 85 85 
85 85 68 85 51 34 0 0 0 0 0 17 0 0 0 0 0 0 0 0 0 0 0 17 17 34 68 68 68 68 85 85 85 85 85 85 85 85 85 85 85 85 85 85 85 85 85 85 85 85 85 85 85 85 85 85 85 85 68 85 85 85 85 153 238 204 85 170 170 238 204 119 85 85 85 85 85 85 85 85 
85 85 51 34 34 34 0 0 0 0 0 0 0 0 0 0 0 0 0 0 0 0 0 0 17 34 68 68 85 68 85 85 85 85 85 85 85 85 85 85 85 85 85 85 85 85 85 85 85 85 85 85 85 85 85 85 68 68 68 85 85 85 85 102 238 221 136 187 187 238 187 85 85 85 85 85 85 85 85 85 
85 51 34 17 17 17 17 0 0 0 0 0 0 0 0 0 0 0 0 0 0 0 0 0 17 34 34 51 85 85 85 85 85 85 85 85 85 85 85 85 85 85 85 85 85 85 85 85 85 85 85 85 85 85 85 85 68 68 68 68 85 85 85 85 170 238 238 255 221 238 102 85 85 85 85 85 85 85 85 85 
51 51 34 17 17 17 17 0 0 0 0 0 0 0 0 0 0 0 0 0 0 0 0 0 34 34 51 51 85 85 85 85 85 85 85 85 85 85 85 85 85 85 85 85 85 85 85 85 85 85 85 85 85 85 85 68 68 68 68 68 68 85 85 85 119 238 255 255 238 221 85 85 85 85 85 85 85 85 85 85 
0 0 0 0 0 0 0 0 0 0 0 0 0 0 0 0 17 0 0 0 0 0 0 0 51 51 68 68 85 85 85 85 85 85 85 85 85 85 85 85 85 85 85 85 85 85 85 85 85 85 85 85 68 68 68 68 68 68 51 68 51 68 85 85 85 119 204 238 238 153 85 85 85 85 85 85 85 85 85 85 
0 0 0 0 0 0 0 0 0 0 0 0 0 0 0 0 0 0 0 0 0 0 0 0 51 51 68 68 85 85 85 85 85 85 85 85 85 85 85 85 85 85 85 85 85 85 85 85 85 85 85 85 68 68 68 68 68 68 68 51 51 51 85 85 85 85 204 221 170 85 85 85 85 85 85 85 68 68 85 85 
0 0 0 0 0 0 0 0 0 0 0 0 0 0 0 0 0 0 0 0 0 0 0 0 51 51 51 68 85 85 85 85 85 85 85 85 85 85 85 85 85 85 85 85 85 85 85 85 85 85 85 85 68 68 68 68 68 51 68 51 68 68 68 85 85 85 85 119 102 85 85 85 68 85 85 85 68 68 85 85 
0 0 17 0 0 0 0 0 0 0 0 0 0 0 17 0 0 0 0 0 0 0 0 0 34 34 68 85 85 85 85 85 85 85 85 85 85 85 85 85 85 85 85 85 85 85 85 85 85 85 85 68 68 68 68 51 68 68 68 51 68 68 68 85 85 85 85 85 85 85 85 85 68 68 85 85 68 68 85 85 
0 0 0 0 17 17 17 0 0 0 0 0 0 0 0 0 0 0 0 0 0 0 0 0 34 34 17 51 68 85 85 85 85 85 85 85 85 85 85 85 85 85 85 85 85 85 85 85 85 85 85 85 68 68 68 68 51 68 68 51 68 68 68 51 85 85 85 85 85 85 85 51 68 85 85 85 85 85 85 85 
17 0 0 0 17 17 0 0 0 0 0 0 0 0 0 0 0 0 0 0 0 0 0 0 17 34 34 51 85 68 85 85 85 85 85 85 85 85 85 85 85 85 85 85 85 85 85 85 85 85 68 68 68 51 68 68 51 51 51 68 68 68 68 51 68 85 85 85 85 85 68 68 68 85 85 85 85 85 85 85 
0 0 0 0 17 34 17 0 0 0 0 0 0 0 0 0 0 0 0 0 0 0 17 0 17 17 17 51 85 85 85 85 85 85 85 85 85 85 85 85 85 85 85 85 85 85 85 85 85 68 68 68 51 68 68 68 51 51 51 51 51 68 51 51 68 85 85 85 85 85 68 68 68 85 68 85 85 85 68 34 
0 0 0 17 51 68 34 0 0 0 0 0 0 0 0 0 0 0 0 0 0 0 17 17 17 34 34 51 68 85 85 85 85 85 85 85 85 85 85 85 85 85 85 85 85 85 85 85 68 68 68 68 68 68 68 51 51 51 51 51 51 51 51 51 68 68 85 85 85 68 68 68 68 68 68 85 85 68 68 34 
