P2
80 192
255
17 17 34 34 34 34 34 51 51 51 51 51 68 85 102 102 119 136 136 153 170 153 136 119 119 85 85 102 102 102 85 68 51 51 51 51 51 51 34 51 51 51 68 68 68 102 119 102 102 85 51 51 34 34 34 34 34 34 34 34 34 34 34 34 34 17 17 17 17 17 17 0 0 0 0 0 0 0 0 0 
34 34 51 51 51 68 68 68 68 85 85 85 85 85 102 102 119 136 136 153 153 136 119 119 102 85 85 85 102 85 85 85 68 68 85 85 68 68 68 68 85 85 85 85 85 102 102 85 85 85 85 68 68 68 51 68 68 51 51 51 51 51 51 34 51 34 34 34 17 17 17 17 17 0 0 0 0 0 0 0 
17 34 51 51 68 68 68 85 85 85 85 85 85 85 102 102 119 119 136 153 170 153 136 119 102 85 85 85 85 85 85 85 85 85 85 85 85 85 85 85 85 85 85 85 85 85 85 85 85 85 85 85 85 85 68 68 68 68 68 51 68 51 51 51 51 51 51 34 34 34 17 17 17 0 0 0 0 0 0 0 
51 51 68 68 68 85 85 85 85 85 85 85 85 85 102 119 119 136 136 170 153 136 119 119 85 85 85 85 85 85 85 85 85 85 85 85 85 85 85 85 85 85 85 85 85 85 85 85 85 85 85 85 85 85 68 85 85 68 68 68 68 68 68 68 51 51 51 34 34 17 17 17 17 0 17 0 0 0 0 0 
34 51 51 68 68 85 85 85 85 85 85 85 85 85 102 102 119 136 153 153 153 153 136 119 102 85 85 85 85 85 85 85 85 85 85 85 85 85 85 85 85 85 85 85 85 85 85 85 85 85 85 85 85 85 85 85 85 85 68 68 85 85 68 68 68 51 51 51 51 34 34 17 17 17 0 0 17 0 0 0 
51 68 68 68 85 85 85 85 85 85 85 85 85 85 102 119 136 136 153 153 153 136 136 119 119 85 85 85 85 85 85 85 85 85 85 85 85 85 85 85 85 85 85 85 85 85 85 85 85 85 85 85 85 85 85 85 85 85 68 85 85 85 68 68 68 68 51 51 51 34 34 17 17 17 17 0 0 0 0 0 
34 51 68 68 85 85 85 85 85 85 85 85 85 85 85 119 119 136 136 153 153 153 136 136 136 102 85 85 85 85 85 85 85 85 85 85 85 85 85 85 85 85 85 85 85 85 85 85 85 85 85 85 85 85 85 85 85 85 68 68 85 85 68 68 68 68 68 51 51 51 34 34 17 17 0 0 0 0 0 0 
51 51 68 85 85 85 85 85 85 85 85 85 85 85 102 119 136 136 153 153 153 153 136 136 119 85 85 85 85 85 85 85 85 85 85 85 85 85 85 85 85 85 85 85 85 102 85 85 85 85 85 85 85 85 85 85 85 85 85 85 85 85 68 68 68 68 68 51 51 34 34 17 17 17 17 17 0 17 0 0 
34 51 68 68 85 85 85 85 85 85 85 85 85 85 85 102 136 136 153 153 153 153 136 153 136 102 85 85 85 85 85 85 85 85 85 85 85 85 85 85 85 85 85 85 85 102 102 85 85 85 85 85 85 85 85 85 85 85 68 85 85 85 68 68 68 68 68 68 51 51 34 34 17 17 17 0 0 0 0 0 
51 68 68 85 85 85 85 85 85 85 85 85 85 85 102 119 136 153 153 153 153 153 153 153 119 85 85 85 85 85 85 85 85 85 85 85 85 85 85 85 85 85 85 85 85 102 85 85 85 85 85 85 85 85 85 85 85 85 85 85 85 85 68 85 68 68 68 68 51 51 34 34 17 17 17 17 17 0 0 0 
34 51 68 68 85 85 85 85 85 85 85 85 85 85 102 102 136 136 153 153 136 153 153 153 153 119 85 85 85 85 85 85 85 85 85 85 85 85 85 85 85 85 85 85 85 85 85 85 85 85 85 85 85 85 85 85 85 85 85 85 85 85 85 68 85 68 68 68 68 51 51 34 34 17 17 0 0 17 0 0 
51 68 68 85 85 85 85 85 85 85 85 85 85 102 102 119 136 136 153 153 153 153 153 153 119 102 85 85 85 85 85 85 85 85 85 85 85 85 85 85 85 85 85 85 85 102 85 85 85 85 85 85 85 85 85 85 85 85 85 85 85 85 85 85 85 85 68 68 51 51 34 34 17 17 17 17 17 0 0 0 
34 51 34 51 51 51 51 51 85 68 51 68 68 51 51 51 51 51 119 136 102 51 68 51 51 51 68 85 51 51 51 51 51 68 85 51 51 68 85 85 68 51 51 51 85 102 85 68 51 85 85 68 51 51 85 68 51 51 51 51 51 68 51 51 51 51 34 51 51 34 34 17 17 17 0 17 0 0 0 0 
51 51 17 17 17 34 34 51 85 51 51 85 68 34 34 34 34 34 68 136 119 17 17 17 34 34 68 68 34 34 34 34 34 51 85 51 51 85 85 51 34 34 34 51 68 102 85 34 51 85 85 68 51 68 85 34 34 34 34 34 34 51 34 17 17 17 17 34 51 17 17 17 17 0 0 0 17 0 0 0 
34 51 34 17 17 17 17 34 102 51 34 153 119 34 17 17 17 17 17 136 136 34 17 17 17 17 85 85 51 17 17 17 17 34 102 68 34 153 102 51 34 17 17 17 34 102 102 51 51 170 102 85 51 102 136 34 17 17 17 17 17 102 51 34 17 17 17 17 85 34 17 0 0 0 0 0 17 0 0 0 
51 51 17 17 17 17 17 34 136 51 34 170 102 17 17 17 17 17 34 136 136 17 0 17 17 34 102 102 34 17 17 17 17 34 136 51 34 187 102 17 17 17 17 17 34 102 102 34 68 170 85 85 34 136 153 17 17 0 17 17 34 153 34 17 17 17 17 17 136 34 17 0 0 0 0 17 51 0 17 0 
34 51 34 17 0 17 17 17 153 51 17 170 85 34 17 17 0 17 17 170 136 34 17 0 17 17 102 102 51 17 17 17 17 17 153 51 34 170 85 34 17 17 17 17 17 136 119 34 85 136 85 85 51 136 102 34 17 0 0 17 17 136 51 17 17 0 17 17 136 34 17 17 0 17 0 17 85 0 0 0 
51 51 17 0 0 0 17 34 136 34 34 136 85 17 0 0 0 17 17 153 153 17 0 0 17 17 85 119 17 17 0 0 17 34 136 51 34 153 68 17 17 0 0 17 34 119 119 34 85 119 85 85 34 136 102 17 17 0 0 17 17 153 34 17 0 0 0 17 136 34 0 0 0 0 0 17 119 0 17 0 
34 51 17 34 153 153 153 119 136 51 34 153 85 34 68 170 153 68 17 170 170 34 68 170 153 136 136 119 51 34 153 153 153 119 136 51 34 153 68 34 51 153 170 68 17 136 119 34 68 136 85 85 51 136 102 85 170 17 34 153 119 136 51 17 136 153 170 119 136 34 17 85 170 153 34 0 136 17 0 0 
34 51 17 51 255 255 238 221 153 34 34 136 85 17 102 255 255 153 17 170 170 17 102 255 238 238 170 119 17 51 255 238 255 204 153 51 34 153 68 17 136 255 238 170 17 136 119 34 85 119 85 85 34 119 102 170 238 34 34 255 221 170 51 17 204 255 255 221 153 34 17 153 255 255 119 0 136 17 0 0 
34 51 17 51 221 170 170 170 170 51 34 153 85 34 119 221 221 153 17 170 153 34 102 238 221 204 187 119 51 51 221 187 187 170 170 51 34 153 68 34 170 221 187 153 17 153 119 34 68 136 85 85 51 136 102 136 187 34 51 204 170 187 68 34 187 221 204 187 170 51 17 136 187 170 85 0 153 17 17 0 
51 51 17 68 136 68 68 68 119 34 34 153 102 34 102 153 153 119 17 170 170 17 119 170 153 136 119 119 34 68 136 85 85 68 119 51 34 153 68 17 170 102 102 85 34 153 136 34 85 119 85 85 34 119 102 119 102 17 68 136 51 119 68 17 170 119 119 102 102 51 17 136 51 17 17 0 153 17 0 0 
34 51 17 68 136 68 85 85 85 68 34 170 102 34 119 136 153 136 34 170 170 17 119 170 170 153 136 119 51 51 153 85 85 85 85 68 34 170 68 34 153 102 85 85 34 170 136 34 68 153 85 85 51 119 102 85 85 51 51 153 68 102 102 34 170 119 136 102 85 68 34 136 68 17 17 0 153 17 17 0 
51 51 17 68 119 85 85 85 85 51 34 136 102 34 102 153 136 136 17 170 187 17 102 170 153 153 119 119 34 51 136 85 85 85 85 51 34 153 85 34 136 85 85 102 34 153 153 34 85 119 85 85 34 119 102 85 85 34 68 119 85 85 85 34 170 119 119 102 85 51 17 136 68 17 17 0 153 17 0 0 
34 51 34 68 136 85 85 85 85 68 34 170 102 34 119 136 153 136 34 170 170 34 119 170 153 153 119 119 51 68 136 85 85 85 85 68 34 153 85 51 153 102 85 85 34 153 136 34 68 136 102 85 51 136 102 85 85 51 51 153 85 85 85 34 170 136 119 119 85 68 34 136 51 34 17 17 153 17 17 0 
51 51 34 68 119 85 85 85 85 51 34 136 102 34 102 153 136 119 17 170 170 17 119 170 153 136 119 119 34 68 136 85 85 85 85 51 34 153 85 34 136 85 85 68 85 187 119 34 68 136 102 85 34 119 102 85 85 34 51 136 85 102 102 34 170 136 119 102 102 51 17 119 68 34 17 0 153 17 0 0 
34 51 34 51 102 85 85 85 85 68 34 170 102 34 51 136 136 85 34 170 153 34 85 153 136 136 136 102 51 51 119 102 85 85 85 68 34 170 85 51 153 102 85 85 204 221 136 34 68 119 102 85 51 136 102 85 85 51 68 153 85 119 102 34 153 119 102 119 119 68 34 68 51 34 17 17 153 17 17 17 
51 51 34 34 34 51 51 85 85 51 34 153 102 17 17 34 34 34 17 170 153 17 17 34 34 85 136 102 34 34 34 51 68 102 85 51 34 153 85 34 136 85 51 68 68 153 119 34 34 34 34 34 34 119 102 85 102 51 51 136 119 119 85 34 34 34 51 119 119 51 17 17 17 17 17 17 153 17 17 0 
34 51 34 17 17 17 34 102 85 68 34 170 102 34 17 17 17 17 17 187 153 34 17 17 17 68 153 119 51 34 17 17 34 119 85 68 34 170 85 51 153 85 51 34 17 102 119 34 17 17 17 17 17 136 119 102 85 51 51 170 136 136 119 34 17 17 17 119 119 85 34 17 17 17 0 17 170 17 17 17 
51 51 17 17 17 17 51 119 85 51 34 153 102 17 17 17 17 17 17 187 153 17 17 17 17 85 153 119 34 17 17 17 51 136 102 68 34 153 85 34 153 68 17 34 34 119 119 17 17 17 17 34 34 136 119 85 102 51 68 170 136 136 85 17 17 17 34 136 102 85 17 17 0 0 0 17 170 17 17 0 
34 51 34 17 17 17 34 153 85 68 34 170 102 34 17 0 0 0 17 221 136 34 17 17 17 85 170 119 51 17 17 17 34 170 119 68 34 170 102 34 153 68 34 17 17 153 119 34 17 17 17 68 17 119 119 102 102 51 51 187 136 136 102 34 17 17 17 170 119 85 34 17 17 0 0 51 187 17 17 17 
51 51 17 0 17 17 34 136 85 51 34 153 102 17 51 17 0 0 68 221 136 17 0 0 17 85 153 119 34 17 17 17 34 170 119 68 34 153 85 34 153 51 17 17 17 153 119 17 17 0 17 136 17 136 119 119 102 34 68 187 153 136 85 17 17 17 17 136 119 68 17 51 0 0 0 102 187 0 17 0 
34 51 34 17 68 51 68 153 85 68 34 170 119 34 85 17 0 68 187 221 136 34 17 85 51 85 187 136 51 17 68 51 68 187 119 68 34 170 102 34 153 51 17 17 17 153 119 34 17 51 119 204 17 119 136 119 119 51 51 187 153 153 119 34 51 68 51 153 136 102 34 85 17 17 68 221 170 0 17 17 
51 51 17 51 255 238 204 119 85 51 34 153 119 17 102 51 0 221 238 187 136 17 119 238 238 187 170 119 34 51 255 238 204 153 119 68 34 153 102 34 136 85 204 153 17 153 136 17 68 255 238 204 17 136 119 102 102 34 68 153 136 136 85 17 204 238 221 170 119 102 17 136 17 17 238 238 102 17 17 0 
34 51 34 51 238 238 221 153 85 68 34 170 119 34 119 85 17 187 238 170 136 34 102 255 238 221 187 136 51 51 238 238 221 170 119 68 34 170 102 34 153 102 221 187 17 153 136 34 68 238 255 153 17 136 119 102 102 51 51 153 119 136 102 34 204 238 238 204 136 119 34 136 51 17 204 221 17 17 17 17 
51 51 17 68 153 51 68 102 85 51 34 153 119 17 119 102 17 119 153 136 136 17 102 204 170 170 170 119 34 51 170 136 136 136 119 68 34 153 102 34 136 136 170 136 17 153 136 17 68 153 102 85 17 119 119 102 102 34 68 153 119 136 85 17 170 136 136 136 136 119 17 136 51 17 85 34 34 17 17 0 
34 51 34 68 136 68 85 85 85 68 34 170 119 34 119 119 34 85 153 153 136 34 119 187 153 170 170 136 51 51 170 119 119 136 119 68 34 170 102 34 153 119 119 102 34 153 136 34 85 153 102 85 34 136 119 102 102 51 51 153 119 119 102 34 170 136 153 136 153 136 34 136 68 17 68 51 51 34 17 17 
51 51 17 68 119 85 85 85 85 51 34 153 102 34 119 136 17 68 170 153 136 17 119 170 170 170 170 136 34 68 153 119 119 119 102 68 34 153 102 34 136 119 102 102 34 153 136 17 85 119 85 102 34 119 119 85 85 34 68 153 102 119 85 34 170 153 136 136 136 119 34 136 85 17 51 51 34 17 17 17 
34 51 34 68 136 85 85 85 85 68 34 170 102 34 119 119 34 34 170 153 136 34 102 187 170 170 170 153 51 51 170 136 136 119 102 85 34 170 102 34 153 102 102 85 51 153 136 34 68 153 85 85 51 119 119 85 85 51 51 153 102 119 102 34 170 136 136 136 136 136 34 136 68 34 51 68 51 34 34 17 
51 51 34 68 119 85 85 85 85 51 34 153 102 34 119 136 34 34 153 153 136 34 119 170 170 170 153 153 51 68 153 119 119 102 85 51 34 153 119 34 119 102 102 85 34 153 153 34 85 119 85 85 34 119 102 85 85 34 68 136 85 119 85 34 170 153 136 136 119 119 34 136 68 34 34 68 51 34 17 17 
34 68 34 68 136 85 85 85 85 68 34 153 102 34 119 136 68 17 153 153 136 34 51 102 102 102 85 170 51 51 170 136 136 119 102 68 34 170 119 34 51 68 85 68 34 153 136 34 68 136 85 85 51 136 102 85 85 51 51 153 85 102 102 34 85 85 85 68 102 119 34 136 68 34 34 68 51 34 34 17 
51 51 34 68 119 85 85 85 85 34 34 153 85 34 102 119 68 34 119 153 136 17 17 17 17 34 51 187 34 68 153 119 119 102 85 68 34 170 119 17 34 34 34 34 34 153 136 34 68 136 85 85 34 119 102 85 85 51 68 136 85 102 85 17 17 34 34 51 119 136 34 136 85 34 34 68 51 34 17 17 
34 68 34 68 119 85 85 85 85 68 34 153 85 51 119 119 85 34 85 170 153 34 17 17 17 17 34 221 34 51 153 119 119 102 102 85 34 187 136 34 17 17 17 17 17 153 119 34 68 153 102 85 51 136 102 85 85 51 51 153 102 102 102 34 17 17 17 17 136 136 34 136 85 68 34 68 68 51 34 17 
51 51 34 68 119 85 85 85 85 51 34 136 85 34 102 102 85 17 68 187 153 17 0 0 0 17 51 221 34 68 153 119 102 102 102 68 34 170 119 17 17 17 17 34 17 153 136 34 68 136 85 85 34 119 102 85 85 34 68 136 102 119 85 17 17 17 17 34 153 136 34 136 85 68 34 51 51 34 34 17 
34 51 34 51 119 85 85 85 85 51 34 153 85 51 102 102 85 51 17 204 170 34 17 0 17 0 68 221 34 51 153 119 119 102 102 85 34 170 136 34 17 17 0 85 17 153 153 34 68 153 119 85 51 119 119 102 85 51 51 136 102 119 85 34 17 17 17 17 170 136 34 136 102 85 51 51 68 51 34 17 
51 51 34 51 85 85 85 85 68 34 34 85 68 34 68 85 85 34 34 136 136 17 0 0 0 17 85 187 17 34 136 119 102 85 102 51 34 119 136 51 17 0 17 136 17 85 119 17 51 119 102 68 34 68 102 85 85 34 51 102 102 102 51 17 17 0 17 17 153 102 34 68 102 68 17 34 51 34 34 17 
34 34 34 85 68 85 85 85 85 51 85 68 68 51 85 85 85 68 85 102 102 68 85 85 85 68 153 153 51 85 119 119 119 102 102 68 85 85 136 153 85 68 153 204 68 85 85 68 85 119 102 68 68 85 102 102 85 68 85 85 102 85 68 85 85 85 85 85 204 85 68 85 85 68 51 102 51 51 34 17 
51 51 136 221 136 85 85 85 85 102 221 187 85 170 204 102 85 136 238 221 187 221 255 255 255 238 238 187 187 221 170 119 119 119 119 136 221 187 136 170 238 255 238 221 221 221 170 204 221 153 85 102 187 204 119 102 85 136 221 153 85 102 119 221 238 255 238 238 204 119 187 204 102 68 153 221 187 51 34 17 
34 51 170 221 204 68 85 85 85 136 204 221 153 187 221 187 85 153 238 221 204 221 238 238 238 238 238 187 204 221 221 136 136 119 136 170 221 221 170 136 204 238 238 187 187 221 204 221 221 204 102 102 204 221 187 119 102 170 221 204 119 102 136 204 221 221 238 238 204 136 204 221 170 68 170 204 221 68 34 34 
51 68 51 51 68 85 85 85 85 85 85 85 85 85 85 85 102 136 170 204 187 170 204 204 170 187 136 119 153 153 153 136 136 136 136 136 119 119 136 153 153 153 136 153 153 153 153 119 119 102 85 85 102 102 119 119 119 119 119 119 119 119 85 68 102 119 119 119 119 119 102 102 85 68 68 51 51 34 17 17 
34 68 68 68 85 85 85 85 85 85 85 85 85 85 85 85 85 102 136 187 187 170 170 187 170 170 102 68 136 153 153 153 136 153 136 136 119 119 136 136 136 153 153 153 170 153 153 119 102 102 85 85 85 85 119 119 119 102 102 102 102 85 85 85 85 102 102 102 119 102 102 85 85 85 85 68 51 51 34 34 
68 68 85 85 85 85 85 85 85 85 85 85 85 85 85 85 85 119 136 170 170 170 170 170 170 136 34 51 136 153 153 153 153 153 136 119 119 136 136 136 136 153 153 170 170 153 119 85 102 85 85 85 85 85 119 119 119 102 102 102 85 85 85 85 85 85 85 85 102 85 85 85 85 85 68 68 51 34 34 17 
34 68 68 85 85 85 85 85 85 85 85 85 85 85 85 85 85 102 119 153 170 170 170 170 153 85 34 34 119 153 153 153 153 153 136 119 119 136 136 136 153 153 170 170 170 153 153 102 102 85 85 85 85 85 102 119 119 102 119 102 85 85 85 85 85 85 85 85 85 85 85 85 85 85 68 68 51 51 34 34 
68 68 68 85 85 85 85 85 85 85 85 85 85 85 85 85 85 119 153 153 170 170 170 102 34 34 34 34 102 153 153 153 153 153 136 136 119 136 136 153 153 170 170 170 153 153 136 102 85 85 85 85 85 102 102 119 119 119 102 85 85 85 85 85 85 85 85 85 85 85 85 85 85 68 68 51 51 34 34 17 
34 68 68 85 85 85 85 85 85 85 85 85 85 85 85 85 85 119 136 136 170 187 153 68 34 34 17 17 34 136 153 153 153 153 136 136 136 119 119 136 153 170 170 153 153 170 153 119 85 85 85 85 85 85 102 119 102 119 102 85 85 85 85 85 85 85 102 85 85 85 85 85 85 68 68 68 51 51 34 34 
51 68 85 85 85 85 85 85 85 85 85 85 85 85 85 85 85 136 136 136 170 187 85 34 17 17 17 17 34 153 170 153 136 153 136 136 119 119 136 153 153 153 170 153 170 170 136 119 85 85 85 85 85 102 119 102 102 102 85 85 85 85 85 85 85 85 102 102 85 85 85 85 85 68 68 68 51 34 34 17 
34 68 68 85 85 85 85 85 85 85 85 85 85 85 85 85 85 119 119 136 153 170 68 34 17 17 17 17 17 85 170 170 153 153 153 136 136 136 136 153 153 153 170 153 170 170 153 153 102 85 85 85 85 102 119 102 102 102 85 85 85 85 68 85 85 85 85 85 85 85 85 85 85 68 68 68 51 51 34 34 
68 68 85 85 85 85 85 85 85 85 85 85 85 85 85 85 85 119 136 136 153 119 17 17 17 17 17 17 17 85 170 170 153 153 153 136 136 153 153 153 153 153 170 153 170 170 153 119 85 85 85 85 85 102 102 85 85 85 85 85 68 85 85 85 85 85 85 85 85 85 85 85 85 68 68 68 51 51 34 17 
34 68 85 85 68 85 85 85 85 85 85 85 85 85 85 85 85 119 136 119 136 102 34 17 17 17 17 17 17 34 153 170 170 170 170 170 136 153 153 153 153 153 153 153 170 170 170 153 102 85 85 85 85 85 85 85 85 85 85 85 85 85 68 85 85 85 85 85 85 85 85 85 85 85 68 68 51 51 51 34 
68 68 85 85 85 85 85 85 85 85 85 85 85 85 85 85 85 136 119 119 119 51 17 17 17 0 0 17 17 34 153 170 170 170 170 153 136 153 153 153 153 153 153 153 170 170 153 119 85 85 85 85 85 85 85 85 85 85 85 85 85 85 68 85 85 85 85 85 85 85 85 85 85 85 68 68 51 51 34 17 
34 68 68 85 68 85 68 85 85 85 85 85 85 85 85 85 85 119 119 102 102 51 34 17 17 0 17 0 17 17 119 170 170 170 153 136 136 153 153 153 153 153 153 136 153 170 170 136 85 85 85 85 85 85 85 85 85 85 85 85 85 85 68 85 85 85 85 85 85 85 85 85 85 85 85 68 68 51 51 34 
68 68 85 85 85 68 85 85 85 85 85 85 85 85 85 85 85 119 119 102 102 17 17 17 0 0 0 17 17 34 136 170 170 153 136 119 136 170 153 153 153 153 153 153 153 170 136 102 85 85 85 85 85 85 85 85 85 85 85 85 85 85 85 85 85 85 85 85 85 85 85 85 85 85 68 68 51 51 34 17 
34 68 68 85 68 85 68 85 85 85 85 85 85 85 85 85 85 136 136 119 102 34 17 17 17 0 17 0 0 34 119 136 170 153 136 119 136 153 153 153 153 153 153 153 153 170 153 119 85 85 85 85 85 85 85 85 85 85 85 85 85 85 85 85 85 85 85 85 85 85 85 85 85 85 85 68 68 51 51 51 
68 68 68 68 68 68 85 68 85 85 85 85 85 85 85 85 85 119 119 119 102 17 17 0 0 0 0 17 17 34 119 153 170 153 136 119 153 153 153 153 153 153 153 153 170 170 136 102 85 85 85 85 85 85 85 85 85 85 85 85 68 68 68 85 85 85 85 85 85 85 85 68 85 68 68 68 51 51 51 34 
34 68 102 102 119 85 68 102 85 85 85 85 85 85 85 85 102 119 119 119 102 85 34 17 85 68 0 0 17 102 119 119 170 170 136 119 136 170 153 170 170 153 153 170 170 170 153 119 119 85 85 85 85 85 102 102 102 85 85 85 102 119 85 85 85 85 85 85 85 102 102 85 85 85 85 68 102 68 51 51 
51 51 221 221 204 153 68 204 102 68 204 136 85 85 85 170 221 221 204 119 102 238 119 17 221 187 0 17 17 221 153 136 170 153 136 136 153 204 170 170 204 170 187 204 204 204 153 153 204 85 85 204 85 85 221 221 204 136 68 153 221 221 187 85 68 187 153 85 153 221 221 153 68 187 170 51 204 153 51 34 
34 68 221 238 238 221 68 221 153 68 221 153 68 85 85 170 238 238 238 119 85 221 119 17 238 187 0 0 17 238 170 119 170 170 153 153 153 204 187 170 204 170 187 221 221 221 170 170 221 102 85 204 119 85 221 238 238 204 68 153 238 238 238 119 68 204 187 85 187 221 238 204 51 204 187 51 221 187 51 51 
51 68 255 255 238 221 85 221 153 51 221 119 85 85 85 204 238 238 221 119 34 238 136 0 238 187 0 0 34 221 170 136 170 153 153 153 153 221 187 187 204 187 204 238 238 221 170 170 221 102 85 221 102 68 238 255 238 221 68 187 238 238 238 136 51 221 170 102 238 255 238 187 51 221 187 51 238 170 51 34 
34 68 238 255 255 238 85 221 187 68 221 119 85 85 85 187 238 238 238 136 34 238 119 0 238 204 0 0 17 238 187 119 170 170 153 153 153 204 187 187 221 187 204 221 238 238 170 170 221 119 85 204 102 85 221 255 255 238 51 170 238 238 255 170 51 221 204 102 221 238 255 204 51 221 187 68 238 187 51 51 
34 68 238 255 255 238 68 204 187 102 221 85 85 85 85 204 255 255 238 136 34 255 136 0 238 187 0 0 34 238 170 119 170 170 153 153 170 221 187 204 221 187 204 238 238 221 170 170 221 119 85 221 102 85 238 255 238 238 68 170 255 238 238 170 51 221 170 85 238 255 238 187 51 221 187 85 238 170 51 34 
34 68 238 238 221 255 68 204 204 119 221 85 85 85 85 187 238 221 255 136 34 238 119 0 238 204 0 0 17 238 221 102 153 170 170 153 153 221 204 204 221 170 187 221 238 238 170 153 221 170 102 221 102 85 221 238 238 255 68 170 238 221 255 187 51 221 187 85 238 238 255 221 51 221 187 119 221 153 51 68 
34 68 238 102 102 238 68 187 204 136 221 85 85 85 68 204 204 85 255 136 17 255 136 0 238 187 0 0 34 238 204 85 153 170 170 136 136 221 204 204 204 153 204 221 170 221 170 170 221 153 85 221 102 85 238 153 153 221 68 170 238 51 221 187 51 221 187 85 238 102 153 204 51 221 170 136 221 68 68 51 
34 68 238 102 102 238 51 153 221 170 221 51 85 85 85 187 204 85 221 153 34 255 119 0 238 204 0 0 17 238 221 51 136 170 170 170 136 221 204 221 204 153 204 204 170 221 153 170 221 204 102 221 119 85 221 136 136 221 68 170 238 51 221 187 51 221 187 102 221 102 153 204 51 221 187 170 221 51 68 68 
34 68 238 102 102 221 68 136 238 204 204 68 85 85 68 204 204 34 238 136 17 255 136 0 238 187 0 0 34 238 204 68 153 170 170 170 153 221 204 204 187 153 221 204 153 204 170 187 221 187 102 221 102 102 221 119 153 221 68 187 221 51 221 187 51 221 170 102 221 102 102 136 51 221 187 187 204 85 68 51 
17 68 238 102 102 238 51 119 221 221 204 51 85 85 85 187 204 34 238 136 34 255 119 0 238 204 0 0 17 238 238 85 136 170 153 170 170 204 204 221 170 153 204 204 153 187 170 170 221 221 102 221 119 102 221 136 119 221 85 153 238 51 221 187 68 221 187 102 221 136 85 85 85 204 187 204 187 68 85 85 
34 68 238 102 102 238 51 85 255 238 170 68 85 85 68 204 221 17 255 136 17 255 136 0 238 187 0 0 34 238 204 102 153 170 153 170 187 221 204 221 153 153 221 204 170 170 170 204 221 221 119 221 102 102 221 136 136 221 68 187 221 68 221 170 51 221 170 102 221 102 85 85 68 221 204 204 153 85 85 51 
17 68 238 119 119 238 51 68 238 255 170 51 85 85 85 187 204 51 238 102 34 255 119 0 238 187 0 0 17 238 170 51 153 170 170 170 170 204 221 221 153 153 204 204 170 170 170 187 221 238 136 221 119 102 221 136 119 221 85 170 221 51 221 170 68 221 187 119 221 119 85 85 85 204 204 221 153 85 85 85 
34 68 238 221 221 221 51 68 238 238 136 85 85 85 68 204 238 221 255 85 17 255 136 0 238 204 0 0 17 238 153 102 204 170 170 153 170 221 221 221 153 153 204 221 187 170 170 204 238 221 153 221 119 102 221 119 119 221 102 170 238 170 221 136 68 221 170 102 221 102 85 85 85 221 221 221 102 85 85 51 
17 68 238 255 255 187 34 68 221 238 136 68 85 85 85 187 238 255 255 17 34 255 119 0 238 187 0 0 34 238 153 136 204 187 170 153 170 221 221 238 204 153 187 221 221 170 153 187 221 221 170 221 136 102 221 119 119 221 102 153 238 238 238 136 85 204 204 119 221 136 85 85 85 204 238 238 204 85 85 85 
34 68 255 238 238 102 51 51 221 221 102 85 85 85 68 204 255 255 187 0 51 255 136 0 238 187 0 0 17 238 170 153 204 170 170 170 170 238 238 238 204 153 204 221 204 170 153 187 221 221 187 221 119 119 221 119 119 221 85 187 238 238 204 85 85 221 170 102 221 102 85 85 85 221 255 238 221 102 85 51 
34 68 238 238 255 170 51 51 204 238 85 68 85 85 85 187 238 255 238 17 34 255 119 0 238 204 0 0 34 238 221 170 187 187 170 170 170 221 238 238 238 153 187 221 238 153 153 187 204 221 204 221 136 119 221 136 119 221 85 153 238 255 221 85 85 204 204 119 221 136 85 85 85 204 238 238 238 136 85 85 
34 68 255 255 238 204 51 51 204 221 85 85 85 85 68 204 255 238 255 68 34 255 136 0 238 187 0 0 34 221 204 187 187 170 170 170 204 238 238 238 221 153 204 238 221 153 153 187 221 204 221 221 119 119 221 119 136 221 102 187 238 238 221 102 85 221 170 119 221 102 85 85 85 221 255 238 221 119 85 51 
34 68 238 187 187 238 51 51 170 238 51 85 85 85 85 187 238 170 238 102 17 255 119 0 238 204 0 0 17 238 221 187 187 187 170 170 187 221 238 238 238 136 187 221 204 153 136 170 204 187 221 221 136 102 221 136 119 221 102 153 238 238 238 153 102 204 204 119 221 136 85 85 85 204 238 255 255 119 85 85 
34 68 238 102 102 238 68 51 170 221 68 85 85 85 68 204 204 68 255 136 17 255 136 0 238 187 0 0 34 238 204 170 187 187 170 170 187 238 238 238 221 153 204 204 153 153 136 187 204 187 238 221 119 102 221 119 136 221 102 187 238 102 221 153 102 221 170 119 221 119 85 85 85 221 238 221 221 119 85 51 
34 51 238 102 102 238 68 51 170 221 51 68 85 85 85 187 204 85 221 136 34 255 119 0 238 187 51 204 34 238 221 204 204 187 170 170 187 221 204 187 221 153 187 204 153 136 136 187 204 170 221 238 119 102 221 136 119 221 102 170 221 102 221 187 102 204 204 119 221 136 85 85 85 204 204 85 238 119 85 85 
34 68 238 119 102 221 68 51 170 221 85 85 85 85 68 204 204 85 255 136 17 255 136 0 238 170 85 255 68 221 204 204 204 170 170 153 170 221 204 187 221 153 204 204 153 153 153 204 204 153 238 221 102 102 221 119 136 221 119 187 221 119 221 170 102 221 170 119 221 102 85 102 85 221 187 85 221 119 68 51 
17 68 238 102 102 238 85 51 170 221 51 68 85 85 85 187 204 102 221 136 34 255 119 0 238 170 85 255 51 238 204 204 221 187 170 153 153 221 204 187 221 153 204 204 153 204 153 187 204 153 221 238 119 102 221 136 119 221 119 170 221 119 204 204 102 221 187 119 221 119 136 187 85 204 187 102 221 136 68 85 
34 68 221 119 102 221 68 51 170 221 85 85 85 85 68 204 187 85 255 136 17 255 136 0 238 187 85 238 68 221 187 204 204 187 170 153 153 221 187 187 204 153 204 204 153 204 170 187 204 153 221 221 119 119 221 136 136 221 119 187 221 119 221 170 102 221 187 119 221 119 153 204 85 221 170 85 221 119 68 51 
17 68 238 102 102 238 68 51 153 221 51 85 85 85 85 187 204 68 221 153 17 255 119 0 238 170 85 255 68 238 187 204 221 187 187 153 153 204 187 187 221 153 187 204 153 204 153 187 204 153 204 238 119 102 221 136 136 221 119 170 221 119 204 187 102 204 187 119 221 119 136 221 85 204 204 102 221 119 68 68 
34 68 238 153 153 221 68 51 187 221 85 85 85 85 68 204 221 102 255 136 34 255 136 0 255 204 136 238 68 238 204 204 221 170 170 153 153 221 187 204 204 153 204 204 187 204 170 204 204 153 221 221 119 119 221 170 170 221 119 187 221 119 221 187 102 221 187 119 221 153 187 204 85 238 170 85 221 136 68 51 
17 153 238 238 238 238 68 51 204 238 119 68 85 85 85 221 238 238 255 119 119 255 187 68 255 255 255 238 136 238 238 238 221 170 153 153 170 204 187 187 221 204 204 221 221 221 170 204 221 153 187 221 170 153 221 221 221 221 136 204 221 102 204 221 136 221 221 136 221 221 221 204 119 221 187 102 221 187 68 68 
34 153 255 238 255 238 68 51 238 221 119 68 85 85 85 238 255 238 255 119 136 255 204 85 255 255 255 238 170 238 238 238 221 170 170 170 187 221 204 204 221 221 238 238 238 221 187 221 204 153 204 221 170 187 238 238 238 221 136 221 221 102 221 221 153 238 221 136 238 238 238 187 119 238 170 85 238 187 68 34 
17 153 238 255 255 238 51 68 221 238 136 68 85 85 85 221 255 255 255 102 136 255 204 85 255 255 255 238 153 255 238 238 238 187 170 170 187 221 204 204 221 221 238 238 238 238 204 221 221 136 187 221 187 187 221 238 238 221 119 221 221 102 204 221 170 221 238 119 221 238 238 221 119 221 187 102 221 221 51 68 
34 153 255 238 255 221 51 51 238 221 119 68 68 51 51 238 255 238 255 102 136 255 187 85 255 238 255 238 153 255 255 238 221 170 170 153 204 221 204 204 238 221 238 238 238 221 204 221 221 153 170 221 187 187 238 238 238 204 119 221 221 102 221 221 153 238 221 119 238 238 238 187 136 221 170 85 238 187 85 68 
17 153 238 255 255 221 34 51 221 238 136 68 68 51 51 238 255 255 255 68 136 255 204 85 255 255 255 238 153 255 255 238 238 187 170 153 187 221 204 204 221 221 238 238 255 238 204 221 221 153 153 221 187 170 221 238 238 204 102 221 221 102 204 221 170 221 238 102 187 238 238 204 119 221 187 102 221 221 68 85 
34 119 255 238 238 136 51 51 221 221 102 68 51 17 34 238 238 238 221 34 102 255 170 51 238 238 238 204 102 238 238 238 221 170 170 136 170 221 187 187 238 187 238 255 238 221 204 221 204 153 153 221 170 153 238 238 221 119 85 221 187 102 187 204 119 238 204 102 136 238 238 170 102 221 153 85 238 170 85 68 
34 34 51 34 34 51 51 51 51 51 68 68 51 34 17 17 17 34 136 34 17 17 0 0 17 17 17 17 0 17 17 153 170 153 170 136 153 170 187 170 153 136 153 170 170 170 153 170 170 153 136 136 119 119 102 102 102 102 85 102 102 85 102 102 102 102 102 85 85 102 85 102 85 102 85 85 68 68 85 85 
51 51 51 51 51 51 51 51 68 68 68 68 17 17 17 0 17 34 119 34 0 0 0 0 0 0 0 0 0 17 34 102 170 170 153 136 153 170 170 170 153 153 170 170 170 170 170 170 170 153 119 102 85 85 85 85 85 85 85 85 85 85 85 85 85 85 85 85 85 85 85 85 85 85 85 85 85 85 68 51 
34 51 51 51 51 51 68 68 68 68 68 68 34 17 0 0 17 17 51 34 17 17 0 0 0 0 0 0 0 0 17 85 153 170 170 153 153 170 170 170 170 153 170 170 170 170 170 170 170 153 119 102 85 85 85 85 85 85 85 85 85 85 85 85 85 85 85 85 85 85 85 85 85 85 85 85 85 85 85 68 
51 51 51 51 51 68 68 68 68 68 68 51 17 17 0 0 0 17 17 17 0 0 0 0 0 0 0 0 0 17 17 102 170 170 153 153 170 170 170 170 153 153 153 153 170 170 170 153 136 119 85 85 85 85 85 85 85 85 85 85 85 85 85 85 85 85 85 85 85 85 85 85 85 85 85 85 85 85 68 51 
34 51 51 51 68 51 68 68 68 85 85 68 17 17 0 0 0 17 17 0 0 0 0 0 0 0 0 0 0 17 17 102 187 170 153 170 170 170 170 170 153 153 153 153 170 170 170 153 136 119 85 85 85 85 85 85 85 85 85 85 85 85 85 85 85 85 85 85 85 85 85 85 85 85 85 85 85 85 85 85 
51 51 51 51 68 68 68 68 68 68 68 34 17 17 0 0 0 0 0 0 0 0 0 0 0 0 17 0 0 17 17 119 187 153 170 170 170 170 170 187 153 136 153 153 153 153 153 136 119 85 85 85 85 85 85 85 85 85 85 85 85 85 85 85 85 85 85 85 85 85 85 85 85 85 85 85 85 85 85 51 
34 51 51 68 68 68 68 68 68 85 85 51 17 17 0 0 0 0 0 0 0 0 0 0 0 0 0 0 0 17 17 136 170 153 153 170 170 170 170 170 170 136 136 136 153 153 153 136 119 85 85 85 85 85 85 85 85 85 85 85 85 85 85 85 85 85 85 85 85 85 85 85 85 85 85 85 85 85 85 85 
51 51 68 68 68 68 68 68 85 68 68 34 17 0 0 0 0 0 0 0 0 17 0 0 0 0 0 0 0 17 17 136 153 136 136 170 170 170 170 170 153 119 136 136 153 136 119 102 85 85 85 85 85 85 85 85 85 85 85 85 85 85 85 85 85 85 85 85 85 85 85 85 85 85 85 85 85 85 85 51 
34 51 51 51 68 68 68 68 68 85 68 51 17 17 0 0 0 0 0 0 0 0 0 0 0 0 0 0 17 17 17 119 153 136 136 153 170 170 170 170 170 136 119 136 136 136 119 102 85 85 85 85 85 85 85 85 85 85 85 85 85 85 85 85 85 85 85 85 85 85 85 85 85 85 85 85 85 85 85 85 
51 51 51 68 68 68 68 68 85 68 68 17 17 0 0 0 0 0 0 0 0 0 0 17 0 0 0 17 17 51 34 136 136 136 170 153 170 170 170 170 136 119 136 136 119 119 102 85 85 85 85 85 85 85 85 85 85 85 85 85 85 85 85 85 85 85 85 85 85 85 85 85 85 85 85 85 85 85 85 51 
34 51 51 68 68 68 68 68 68 85 68 34 17 0 0 0 0 0 0 0 0 0 0 0 0 0 17 0 34 136 102 119 136 153 170 170 170 170 170 170 153 136 136 119 102 102 102 85 85 85 85 85 85 85 85 85 85 85 85 85 85 85 85 85 85 85 85 85 85 85 85 85 85 85 85 85 85 85 85 85 
51 51 68 51 68 68 68 68 68 51 34 17 0 17 0 0 0 0 17 0 0 0 0 0 0 0 17 17 85 136 153 136 153 170 170 170 170 170 170 170 136 136 119 102 102 85 85 85 85 85 85 85 85 85 85 85 85 85 85 85 85 85 85 85 85 85 102 170 102 85 85 85 85 85 85 85 85 85 85 51 
34 51 51 68 68 68 68 68 68 34 34 17 17 0 0 0 0 0 0 0 0 0 0 0 0 0 17 17 68 119 170 136 153 153 170 170 170 170 170 170 136 136 136 102 102 85 85 85 85 85 85 85 85 85 85 85 85 85 85 85 85 85 85 85 85 85 187 221 204 85 85 85 85 85 85 85 85 85 85 85 
51 51 68 68 68 68 68 68 51 17 17 0 0 0 0 0 0 0 0 0 0 0 0 0 0 0 17 34 85 136 170 153 153 153 170 170 170 170 170 153 136 136 119 85 85 85 85 85 85 85 85 85 85 85 85 85 85 85 85 85 85 85 85 85 85 170 238 238 221 119 85 85 85 85 85 85 85 85 85 51 
34 51 68 68 68 68 68 68 68 34 17 0 0 0 0 0 0 0 0 0 0 0 0 0 0 0 17 17 102 119 170 153 153 153 170 170 170 170 170 170 136 136 136 102 85 85 85 85 85 85 85 85 85 85 85 85 85 85 85 85 85 85 85 85 85 221 238 255 238 221 85 85 85 85 85 85 85 85 85 85 
51 51 68 68 68 68 68 68 34 17 17 0 0 0 0 0 0 0 0 0 0 0 0 17 0 0 17 34 102 136 153 136 136 153 170 170 170 170 170 153 119 119 119 85 85 85 85 85 85 85 85 85 85 85 85 85 85 85 85 85 85 85 85 85 204 238 255 238 238 221 136 85 85 85 85 85 85 85 85 51 
34 51 68 68 68 68 68 68 51 17 17 0 0 0 0 0 0 17 0 0 0 0 0 0 0 0 17 17 51 102 136 136 119 136 170 170 170 170 170 170 136 119 119 102 85 85 85 85 85 85 85 85 85 85 85 85 85 85 85 85 85 85 85 102 221 204 221 153 136 221 221 85 85 85 85 85 85 85 85 85 
51 68 68 68 68 68 68 68 34 17 0 0 0 0 17 0 0 0 0 0 0 0 0 0 0 0 17 17 51 119 136 119 119 136 170 170 170 170 170 153 136 119 102 85 85 85 85 85 85 85 85 85 85 85 85 85 85 85 85 85 85 85 85 204 221 170 187 136 102 221 204 153 85 85 85 85 85 85 85 51 
34 68 68 68 85 85 68 68 51 17 17 0 0 0 0 0 0 0 0 0 0 0 0 0 0 0 0 17 17 119 136 136 119 136 187 170 170 170 170 170 153 136 102 85 85 85 85 85 85 85 85 85 85 85 85 85 85 85 85 85 85 85 170 187 119 170 170 153 119 187 119 187 136 85 85 85 85 85 85 85 
68 68 68 85 85 85 68 68 17 17 0 0 0 0 0 0 0 0 0 17 0 0 0 0 0 0 17 17 34 119 153 119 119 153 187 170 170 170 170 153 119 102 85 85 85 85 85 85 85 85 85 85 85 85 85 85 85 85 85 85 85 102 221 136 153 170 170 136 102 187 102 153 187 85 85 85 85 85 85 51 
34 68 68 85 85 85 85 68 34 17 17 0 0 0 0 0 0 0 0 0 0 0 0 0 0 0 0 17 17 68 153 136 119 136 187 187 170 170 170 153 136 102 85 85 85 85 85 85 85 85 85 85 85 85 85 85 85 85 85 85 85 85 204 170 153 187 170 119 85 187 119 204 204 85 85 85 85 85 85 85 
68 68 68 85 85 85 85 51 17 17 0 0 0 0 0 0 0 0 0 0 0 0 0 0 0 0 0 17 17 102 153 119 119 153 187 170 187 187 153 136 119 85 85 85 85 85 85 85 85 85 85 85 85 85 85 85 85 85 85 85 85 85 187 170 102 187 153 136 119 187 85 221 153 85 85 85 85 85 85 51 
51 68 68 85 85 85 85 68 34 17 0 0 0 0 0 0 0 0 0 0 17 0 0 0 0 0 0 17 17 51 170 136 119 136 170 187 187 153 153 136 119 102 85 85 85 85 85 85 85 85 85 85 85 85 85 85 85 85 85 85 85 85 136 187 136 187 153 136 119 170 119 221 136 85 85 85 85 85 85 85 
68 68 85 85 85 85 68 51 17 0 0 0 0 0 0 0 0 0 0 0 0 0 0 0 0 0 0 17 17 51 136 119 119 153 170 170 170 136 136 119 102 85 85 85 85 85 85 85 85 85 85 85 85 85 85 85 85 85 85 85 85 85 119 187 153 204 136 187 153 136 170 221 85 85 85 85 85 85 85 51 
51 68 68 85 85 85 85 68 34 17 0 0 0 0 0 0 0 17 0 0 0 0 0 0 0 0 0 0 17 34 119 102 102 136 170 170 170 136 136 119 102 85 85 85 85 85 85 85 85 85 85 85 85 85 85 85 85 85 85 85 85 85 85 170 136 221 221 238 238 170 85 170 85 85 85 85 85 85 85 85 
68 68 85 85 85 85 85 34 17 17 0 0 0 0 0 0 0 0 0 0 0 0 0 0 0 0 0 17 17 34 102 119 119 153 170 170 187 136 136 102 85 85 85 85 85 85 85 85 85 85 85 85 85 85 85 85 85 85 85 85 85 85 85 170 170 255 255 238 238 221 153 136 85 85 85 85 85 85 85 51 
34 68 85 85 85 85 85 51 17 17 0 0 0 0 0 0 0 0 0 0 0 0 17 0 0 0 0 0 17 17 85 102 119 136 153 170 170 153 153 119 85 85 85 85 85 85 85 85 85 85 85 85 85 85 85 85 85 85 85 85 85 85 85 119 221 238 238 221 238 238 238 136 85 85 85 85 85 85 85 85 
68 68 85 85 85 85 85 34 17 17 0 0 0 0 0 0 0 0 0 0 0 0 0 0 0 0 0 0 17 34 68 102 102 68 102 170 170 136 136 102 85 85 85 85 85 85 85 85 85 85 85 85 85 85 85 85 85 85 85 85 85 85 85 119 238 204 119 85 136 221 221 85 85 85 85 85 85 85 85 51 
51 68 85 85 85 85 85 68 17 17 0 0 0 17 0 0 0 0 0 0 0 0 0 0 0 0 0 0 17 17 34 102 68 34 34 119 170 153 136 102 85 85 85 85 85 85 85 85 85 85 85 85 85 85 85 85 85 85 85 85 85 85 85 85 204 119 85 85 85 102 187 85 85 85 85 85 85 85 85 85 
68 85 85 85 85 85 136 34 17 0 0 0 0 0 0 0 0 0 0 0 0 0 0 0 0 0 0 0 17 17 51 102 34 34 34 85 153 136 102 85 85 85 85 85 85 85 85 85 85 85 85 85 85 85 85 85 85 85 85 85 85 85 85 85 85 85 85 85 85 85 85 85 85 85 85 85 85 85 85 51 
51 68 85 85 85 85 119 51 17 17 0 0 0 0 0 0 0 0 0 0 0 0 0 0 0 0 0 0 17 17 17 51 34 17 17 34 119 136 102 85 85 85 85 85 85 85 85 85 85 85 85 85 85 85 85 85 85 85 85 85 85 85 85 85 85 85 85 85 85 85 85 85 85 85 85 85 85 85 85 85 
68 85 85 85 85 119 153 17 17 0 0 0 0 0 0 0 0 0 0 0 17 0 0 0 0 0 0 0 0 17 17 17 17 17 17 34 85 119 85 68 68 85 85 85 85 85 85 85 85 85 85 85 85 85 85 85 85 85 85 85 85 85 85 85 85 85 85 85 85 85 85 85 85 85 85 85 85 85 85 51 
51 68 85 85 85 102 119 34 17 17 0 0 0 0 0 0 0 0 0 0 0 0 0 0 17 0 0 0 0 0 17 17 17 17 17 17 51 119 68 51 68 68 85 85 85 85 85 85 85 85 85 85 85 85 85 85 85 85 119 119 85 85 85 85 85 85 85 85 85 85 85 85 85 85 85 102 119 85 85 85 
68 85 85 85 85 119 102 17 17 0 0 0 0 0 0 0 0 0 0 0 0 0 0 0 0 0 0 0 0 0 17 17 0 17 17 34 51 85 34 51 68 68 85 85 85 85 85 85 85 85 85 85 85 85 85 85 85 85 153 153 85 85 85 85 85 85 85 85 85 85 85 85 85 85 85 170 136 85 85 51 
51 68 85 85 85 102 85 34 17 0 0 0 0 17 0 0 0 0 0 0 0 0 0 0 0 0 0 0 17 0 0 0 0 0 17 17 34 51 34 34 51 68 68 85 85 85 85 85 85 85 85 85 85 85 85 85 85 85 153 221 85 85 85 85 85 85 85 102 85 85 85 85 85 85 85 204 170 85 85 85 
68 85 85 85 85 85 51 17 17 0 0 0 0 0 0 0 0 0 0 0 0 0 0 0 0 0 0 0 0 0 0 0 17 0 0 17 17 34 17 34 51 68 85 85 85 85 85 85 85 85 85 85 85 85 85 85 85 85 204 204 102 85 85 85 85 85 187 221 170 85 85 85 85 85 119 221 170 85 85 51 
51 85 85 85 102 119 68 34 17 0 17 0 0 0 0 0 0 0 0 0 0 0 0 0 0 17 0 0 0 0 0 0 0 0 17 0 17 17 17 17 34 51 68 85 85 85 85 85 85 85 85 85 85 85 85 85 85 85 187 238 170 85 85 85 85 136 221 238 238 170 85 85 85 85 153 221 204 85 85 68 
85 85 85 85 119 136 51 17 17 0 0 0 0 0 0 0 0 0 0 0 0 0 0 0 0 0 0 0 0 0 0 17 0 0 0 0 17 17 17 17 51 68 85 85 85 85 85 85 85 85 85 85 85 85 85 85 85 102 221 238 187 85 85 85 102 221 255 238 238 204 85 85 85 85 221 238 204 85 85 51 
51 85 85 85 119 119 119 51 17 0 0 0 0 0 0 0 0 0 0 0 0 0 0 0 0 0 0 0 0 0 0 0 0 0 17 0 17 17 0 17 17 51 68 85 85 85 85 85 85 85 85 102 102 85 85 85 85 85 221 204 204 102 85 85 119 221 238 255 255 238 153 85 85 102 221 238 238 102 85 68 
85 85 85 85 119 136 170 51 0 17 0 0 0 0 0 0 0 0 17 0 0 0 0 0 0 0 0 0 0 0 0 0 17 0 0 0 0 0 17 17 51 68 85 85 85 85 85 85 85 102 102 102 102 85 85 85 85 119 221 153 136 119 85 85 187 255 238 255 238 238 170 85 85 153 238 204 221 102 85 51 
51 85 85 85 102 136 170 68 17 17 0 0 0 0 0 0 0 0 0 0 0 0 0 0 0 0 0 0 0 0 17 0 0 0 0 0 0 17 0 17 17 51 85 85 85 85 102 85 85 85 102 102 85 85 85 85 85 102 170 187 153 119 85 85 204 204 170 238 170 204 221 85 85 136 238 136 187 153 85 85 
85 85 85 85 102 153 153 17 17 0 0 0 0 17 0 0 0 0 0 0 0 0 17 0 0 0 0 0 0 0 0 0 17 17 0 0 0 17 17 17 51 85 85 85 85 102 85 85 85 85 102 102 85 85 85 85 85 136 187 170 153 102 85 119 187 85 119 221 102 85 170 102 85 136 204 85 153 153 85 68 
51 85 85 85 85 102 119 34 17 0 0 0 0 0 0 0 0 0 0 0 0 0 0 0 0 0 0 0 0 0 17 0 102 68 17 17 0 17 17 17 34 85 85 85 102 102 102 85 85 85 85 85 85 85 85 85 85 170 204 136 136 102 85 119 170 85 85 204 102 85 170 136 85 102 204 85 119 187 85 85 
85 85 85 85 85 85 102 17 17 0 0 0 0 0 0 0 0 0 0 0 0 0 0 0 0 17 0 0 0 0 17 34 102 85 17 17 17 17 17 34 68 85 85 102 102 102 119 85 85 85 102 85 85 85 85 85 85 221 187 153 153 85 85 170 170 85 102 221 85 85 187 153 85 119 170 85 119 187 85 85 
51 85 85 85 85 85 102 34 17 0 0 0 0 0 0 0 0 0 17 0 0 0 0 0 0 0 0 0 0 0 0 17 85 68 17 17 17 17 17 34 85 85 85 85 102 119 119 85 85 102 102 102 85 85 85 85 85 221 204 136 153 85 85 170 187 85 102 187 119 85 170 187 85 85 136 85 85 187 85 85 
85 85 85 85 85 102 85 17 17 0 0 0 0 0 0 0 0 0 0 0 0 0 0 0 0 0 0 0 0 0 17 34 85 34 17 17 17 17 34 85 85 85 85 102 119 119 102 85 85 102 102 85 85 85 85 85 119 238 187 102 136 85 85 204 204 119 187 153 136 136 204 187 85 85 153 85 136 204 85 85 
102 85 85 85 85 85 85 34 17 0 0 0 17 0 0 0 0 0 0 0 0 0 0 0 0 0 0 0 0 0 0 17 34 34 17 17 17 51 85 85 85 102 85 85 119 136 119 102 85 85 85 85 85 85 85 85 102 221 221 170 153 85 85 187 238 204 136 85 170 204 238 204 85 85 153 119 119 221 119 85 
102 85 85 85 85 85 51 17 17 0 0 0 0 0 0 0 0 0 0 0 0 0 0 0 0 0 0 0 0 0 0 17 17 17 17 34 51 85 85 85 85 85 102 102 119 136 119 85 85 85 85 85 85 85 85 85 153 238 204 102 136 85 85 221 238 204 153 85 204 238 238 204 85 85 170 119 136 221 119 85 
136 119 102 119 102 85 68 17 17 0 0 0 0 0 0 0 0 0 0 0 0 0 0 0 0 0 0 17 0 0 0 0 17 17 17 17 34 102 85 85 85 85 102 85 119 136 119 102 85 85 85 85 85 85 85 85 136 221 221 153 136 85 85 204 238 238 238 85 153 238 255 221 85 85 136 187 153 221 153 85 
136 136 136 119 102 102 34 17 0 0 0 0 0 0 0 0 0 0 17 0 0 0 0 0 0 0 0 0 0 0 0 0 0 17 17 34 85 85 85 85 85 85 102 102 136 119 85 85 85 85 85 85 85 85 85 85 170 238 204 153 136 85 85 238 255 238 221 85 136 255 238 204 85 85 170 153 170 221 136 85 
119 136 153 136 136 119 34 17 17 0 0 0 0 0 0 0 0 0 0 0 0 0 0 0 0 17 0 0 0 0 0 0 0 0 17 34 102 85 85 85 85 85 102 119 136 119 85 85 85 85 85 85 85 85 85 85 136 238 204 119 153 85 85 204 255 238 221 102 119 221 255 238 102 85 153 119 136 221 170 85 
119 136 153 136 119 102 17 17 0 0 0 0 0 0 0 0 0 0 0 0 0 0 0 0 0 0 0 0 0 0 0 0 17 17 17 68 102 85 85 85 85 85 102 136 136 102 85 85 85 85 85 85 85 85 85 85 170 238 187 153 136 85 102 238 238 204 136 102 102 170 238 204 85 85 170 119 153 221 136 85 
119 119 136 119 119 102 34 17 0 0 0 0 0 0 0 0 0 0 0 0 0 0 0 0 0 0 0 0 0 0 0 0 0 0 17 119 102 85 85 85 85 85 102 119 136 102 85 85 85 85 85 85 85 85 85 85 136 238 187 136 170 85 85 204 238 170 85 85 85 85 204 238 85 85 153 136 136 221 170 85 
136 170 136 136 119 68 17 17 0 0 0 0 0 0 0 0 0 0 0 17 0 0 0 0 0 0 0 0 0 0 0 17 17 34 102 119 102 85 85 85 85 85 119 136 136 102 85 85 85 85 85 85 85 85 85 85 153 238 170 119 170 85 85 221 238 136 85 85 170 119 204 204 85 85 153 170 170 221 119 85 
119 153 153 153 136 68 34 17 0 0 0 0 0 17 0 0 0 0 0 0 0 0 0 0 0 0 0 17 0 0 0 0 17 85 119 119 102 85 85 85 85 85 102 119 136 119 102 102 85 85 85 85 85 85 85 85 119 221 187 170 187 85 85 204 238 204 119 119 204 221 221 221 85 85 153 153 136 221 153 85 
119 153 170 136 119 34 17 0 0 0 0 0 0 0 0 0 0 0 0 0 0 0 0 0 0 0 0 0 0 0 0 17 34 102 119 119 102 85 85 85 85 85 119 136 153 119 102 119 85 85 85 85 85 85 85 85 136 238 153 119 187 85 85 221 238 238 187 85 221 255 238 187 85 85 170 119 153 221 102 85 
119 153 170 136 119 51 17 17 0 0 0 0 0 0 0 0 0 17 0 0 0 0 0 0 0 0 0 0 0 0 0 0 17 68 102 119 102 102 85 85 85 85 102 119 153 153 136 119 102 85 85 85 85 85 85 85 102 221 170 119 187 85 85 170 238 255 187 119 170 238 255 204 85 85 170 119 119 221 119 85 
119 153 153 119 102 17 17 0 0 0 0 0 0 0 0 0 0 0 0 0 0 0 0 0 0 0 0 0 0 0 0 17 34 85 102 102 85 85 85 85 85 85 102 119 153 153 136 119 102 102 85 85 85 85 85 85 102 221 170 136 170 85 85 187 255 238 153 170 170 255 238 170 85 102 153 85 102 204 85 85 
102 119 136 119 102 51 17 17 0 0 0 0 0 0 0 0 0 0 0 0 0 0 0 0 0 0 0 0 0 0 0 17 17 68 85 85 85 85 85 85 85 85 85 102 136 153 136 136 136 119 102 102 85 85 85 85 85 204 136 119 187 119 85 136 238 221 136 221 153 221 238 170 85 102 136 85 85 187 85 85 
102 102 119 102 85 17 17 0 0 0 0 0 0 0 0 0 0 0 0 0 0 0 17 0 0 0 0 0 0 0 0 17 34 68 85 85 85 85 85 85 85 85 85 102 119 153 136 136 136 102 85 85 85 85 85 85 85 187 170 153 187 102 85 136 238 170 136 221 119 204 221 119 85 119 136 85 85 153 85 68 
119 102 102 85 85 34 17 0 0 0 0 0 0 0 0 0 0 0 0 0 0 0 0 0 0 0 0 0 0 0 0 0 17 51 85 85 85 85 85 85 85 85 85 85 85 136 136 136 136 136 85 85 85 85 85 85 85 153 153 170 204 136 85 85 221 187 153 238 153 187 238 102 85 136 136 85 85 119 85 85 
102 102 102 85 85 17 17 0 0 17 0 0 0 0 0 0 0 17 0 0 0 0 0 0 0 0 0 0 17 0 0 17 17 68 85 85 85 85 85 85 85 85 85 85 102 136 136 153 136 136 85 85 85 85 85 85 85 119 153 153 204 136 85 85 221 204 204 238 187 221 204 85 85 153 119 85 85 102 85 51 
119 119 102 85 85 34 17 0 0 0 0 0 0 0 0 0 0 0 0 0 0 0 0 0 0 0 0 0 0 0 0 17 17 34 85 85 85 85 85 85 85 85 85 85 85 102 136 136 136 136 102 85 85 85 85 85 85 102 170 187 238 153 85 85 170 238 238 238 238 255 187 85 85 136 187 153 170 102 85 68 
119 102 85 85 51 17 17 0 0 0 0 0 0 0 0 0 0 0 0 0 0 0 17 0 0 0 0 0 0 0 0 17 17 51 85 85 85 85 85 85 85 85 85 85 85 102 136 136 136 136 85 85 85 85 85 85 85 119 238 238 221 85 85 85 153 238 255 255 255 221 119 85 85 119 238 221 221 85 85 51 
119 119 85 85 85 34 17 0 0 0 0 0 17 0 0 0 0 0 0 0 0 0 0 0 0 0 0 0 0 0 0 0 17 34 68 85 85 85 85 85 85 85 85 85 85 85 119 136 136 136 102 85 85 85 85 85 85 85 204 238 221 85 85 85 85 204 238 255 255 238 85 85 85 85 187 238 238 102 85 68 
119 102 85 85 85 17 17 0 0 0 0 0 0 0 0 0 0 0 17 0 0 0 0 0 0 0 0 0 0 0 0 17 17 51 85 85 85 85 85 85 85 85 85 85 85 85 136 136 136 102 85 85 85 85 85 85 85 85 238 238 136 85 85 85 85 170 255 238 238 136 85 85 85 85 187 238 204 85 85 34 
119 102 85 85 85 34 17 0 0 0 0 0 0 0 0 0 0 0 0 0 0 0 0 0 0 0 0 0 17 0 0 0 17 34 68 85 85 85 85 85 85 85 85 85 85 85 119 119 136 119 85 85 85 85 85 85 85 85 187 238 119 85 85 85 85 85 170 238 204 85 85 85 85 85 102 221 204 85 85 68 
85 85 85 85 85 34 0 17 0 0 0 0 0 0 0 0 0 0 0 0 0 0 17 0 0 0 0 0 0 0 0 17 17 51 85 85 85 85 85 85 85 85 85 85 85 85 119 136 136 102 85 85 85 85 85 85 85 85 204 204 85 85 85 85 85 85 85 102 85 85 85 85 85 85 85 238 170 85 85 34 
85 85 85 85 85 68 17 17 0 0 0 0 0 0 0 0 0 0 0 0 0 0 0 0 0 0 0 0 0 0 0 0 17 34 68 85 85 85 85 85 85 85 85 85 85 85 85 119 136 119 85 85 85 85 85 85 85 85 170 170 85 85 85 85 85 85 85 85 85 85 85 85 85 85 85 170 170 85 85 68 
85 85 85 85 85 34 17 0 0 0 0 0 0 0 0 0 0 0 0 0 0 0 0 0 0 0 0 0 0 0 0 17 17 51 85 85 85 85 85 85 85 85 85 85 85 85 85 119 102 85 85 85 85 85 85 85 85 85 153 119 85 85 85 85 85 85 85 85 85 85 85 85 85 85 85 136 136 85 85 51 
85 85 85 85 85 51 17 17 0 0 0 0 0 0 0 0 0 0 17 0 0 0 0 0 0 0 0 0 0 0 0 0 17 34 68 85 85 85 85 85 85 85 85 85 85 85 85 85 85 85 85 85 85 85 85 85 85 85 102 85 85 85 85 85 85 85 85 85 85 85 85 85 85 85 85 85 102 85 85 68 
85 85 85 85 85 17 17 0 0 0 0 0 0 0 0 0 0 0 0 0 0 0 0 0 0 0 0 0 0 0 0 17 34 68 85 85 85 85 85 85 85 85 85 85 85 85 85 85 85 85 85 85 85 85 85 85 85 85 85 85 85 85 85 85 85 85 85 85 85 85 85 85 85 85 85 85 85 85 85 51 
85 85 85 85 85 34 17 0 0 0 0 0 0 0 0 0 0 0 0 0 0 0 0 17 0 0 0 0 0 0 0 0 17 51 85 85 85 85 85 85 85 85 85 85 85 85 85 85 85 85 85 85 85 85 85 85 85 85 85 85 85 85 85 85 102 85 85 85 85 85 85 85 85 85 85 85 85 85 85 68 
85 85 85 85 85 17 17 0 0 0 17 0 0 0 0 17 0 0 0 0 0 0 0 0 0 0 0 0 0 0 0 17 34 85 85 85 85 85 85 85 85 85 85 85 85 85 85 85 85 85 85 85 85 85 85 85 85 85 85 85 85 85 85 85 204 119 85 85 85 119 187 85 85 85 85 85 85 85 68 51 
68 85 68 85 85 34 17 17 0 0 0 0 0 0 0 0 0 0 0 0 17 0 0 0 0 0 0 0 0 0 0 0 17 51 85 85 85 85 85 85 85 85 85 85 85 85 85 85 85 85 85 85 85 85 85 85 85 85 85 85 85 85 85 85 204 221 136 85 119 204 221 102 85 85 85 85 85 85 85 68 
85 85 51 51 34 17 17 0 0 0 0 0 0 0 0 0 0 0 0 0 0 0 0 0 17 17 0 0 0 0 0 17 34 68 85 85 85 85 85 85 85 85 85 85 85 85 85 85 85 85 85 85 85 85 85 85 85 85 85 85 85 85 85 136 204 238 221 221 238 238 153 85 85 85 68 85 85 85 68 51 
119 85 51 34 34 17 0 0 0 0 0 0 0 0 0 0 0 0 17 0 0 0 0 0 34 17 0 0 0 0 0 17 17 68 85 85 85 85 85 85 85 85 85 85 85 85 85 85 85 85 85 85 85 85 85 85 85 85 85 85 85 85 85 119 102 221 255 238 238 221 102 136 85 85 85 85 85 85 85 85 
102 68 34 17 17 17 0 0 0 0 0 0 0 0 0 0 0 0 0 0 0 0 0 17 34 17 0 0 0 0 17 17 51 85 85 85 85 85 85 85 85 85 85 85 85 85 85 85 85 85 85 85 85 85 85 85 85 85 85 85 85 85 85 153 85 204 238 255 204 153 102 187 85 85 85 85 85 85 85 51 
68 85 68 17 17 17 0 0 0 0 17 0 0 0 0 0 0 0 0 0 0 0 0 17 51 34 17 0 0 0 0 17 51 68 85 85 85 85 85 85 85 85 85 85 85 85 85 85 85 85 85 85 85 85 85 85 85 85 85 85 85 85 102 153 119 136 119 153 85 136 119 187 102 85 85 85 85 85 85 85 
85 85 68 17 0 0 0 0 0 0 0 0 0 0 0 0 0 0 0 0 0 0 17 34 51 17 0 0 0 0 17 34 68 85 85 85 85 85 85 85 85 85 85 85 85 85 85 85 85 85 85 85 85 85 85 85 85 85 85 68 85 85 153 136 136 119 102 119 85 153 153 187 119 85 85 85 85 85 85 51 
68 85 85 51 17 17 0 0 0 0 0 0 0 0 0 0 0 0 0 0 0 0 0 17 51 51 17 17 0 0 17 34 68 68 85 85 85 85 85 85 85 85 85 85 85 85 85 85 85 85 85 85 85 85 85 85 85 85 85 85 85 85 170 153 136 136 136 170 119 153 153 187 170 85 85 85 85 85 85 85 
85 85 85 85 17 0 0 0 0 0 0 0 0 0 0 0 0 0 0 0 0 0 17 17 51 34 17 0 0 17 34 68 68 85 85 85 85 85 85 85 85 85 85 85 85 85 85 85 85 85 85 85 85 85 85 85 85 85 85 85 85 85 204 102 102 153 102 170 85 170 187 153 204 85 85 85 85 85 85 51 
68 85 85 85 51 17 0 0 0 0 0 0 0 0 0 0 0 0 0 0 0 0 0 17 34 51 17 17 0 17 34 68 68 85 85 85 85 85 85 85 85 85 85 85 85 85 85 85 85 85 85 85 85 85 85 85 85 85 85 85 85 85 204 136 85 153 119 187 85 204 204 187 204 85 85 85 85 85 85 68 
85 85 85 68 17 17 0 0 0 0 0 0 0 0 0 0 0 0 0 0 0 0 0 17 34 51 17 17 17 34 68 85 85 85 85 85 85 85 85 85 85 85 85 85 85 85 85 85 85 85 85 85 85 85 85 85 85 85 68 85 85 85 170 204 153 170 153 204 153 238 238 204 85 85 85 85 85 85 68 51 
68 85 85 85 51 17 17 0 0 0 0 17 0 0 0 0 0 0 0 0 0 0 0 0 17 34 51 51 51 51 68 85 85 85 85 85 85 85 85 85 85 85 85 85 85 85 85 85 85 85 85 85 85 85 85 85 85 85 68 85 85 85 85 187 238 187 85 153 153 221 255 170 85 85 85 85 85 85 85 85 
85 85 85 51 17 0 0 0 0 0 0 0 0 0 0 0 0 0 0 0 17 0 0 17 17 34 51 68 68 68 85 85 85 85 85 85 85 85 85 85 85 85 85 85 85 85 85 85 85 85 85 85 85 85 85 85 85 68 68 85 85 85 85 119 238 204 136 187 187 238 187 85 85 85 85 85 85 85 68 51 
34 51 51 34 17 17 0 0 0 0 0 0 0 0 0 0 0 0 0 0 0 0 0 0 17 17 51 68 68 85 85 85 85 85 85 85 85 85 85 85 85 85 85 85 85 85 85 85 85 85 85 85 85 85 85 85 68 68 68 68 85 85 85 85 153 238 238 238 238 255 153 85 85 85 85 85 85 85 85 68 
17 34 17 17 17 0 0 0 0 0 0 0 0 0 0 0 0 0 0 0 0 0 0 17 34 51 68 68 85 85 85 85 85 85 85 85 85 85 85 85 85 85 85 85 85 85 85 85 85 85 85 85 85 85 68 68 68 68 68 68 68 85 85 85 102 238 255 255 238 187 85 85 85 85 85 85 68 85 68 51 
0 17 17 17 0 0 0 0 0 0 0 0 0 0 0 0 0 0 0 0 0 0 0 0 34 34 51 68 85 85 85 85 85 85 85 85 85 85 85 85 85 85 85 85 85 85 85 85 85 85 85 85 85 85 85 68 68 68 68 68 68 68 85 85 85 153 238 238 255 153 85 85 85 85 85 85 85 85 68 68 
0 0 0 0 0 0 0 0 0 0 0 0 0 0 0 0 0 0 0 0 0 0 17 17 34 34 51 68 85 85 85 85 85 85 85 85 85 85 85 85 85 85 85 85 85 85 85 85 85 85 85 85 85 68 68 68 68 51 68 51 68 68 85 85 85 85 221 238 187 85 85 85 85 85 85 85 68 68 68 51 
0 0 0 0 17 0 0 0 17 0 0 0 0 0 0 0 17 0 0 0 0 0 0 17 17 34 51 68 68 85 85 85 85 85 85 85 85 85 85 85 85 85 85 85 85 85 85 85 85 85 85 85 85 68 68 68 68 68 51 51 68 68 68 85 85 85 85 153 102 85 85 85 68 85 85 85 85 68 68 68 
0 0 0 0 0 0 0 0 0 0 0 0 0 0 0 0 0 0 0 0 0 0 0 17 34 34 51 68 85 85 85 85 85 85 85 85 85 85 85 85 85 85 85 85 85 85 85 85 85 85 85 85 68 68 68 68 68 68 51 68 68 68 68 85 85 85 85 85 85 85 85 68 68 68 85 85 68 68 68 51 
0 0 0 0 0 0 0 0 0 0 0 0 0 0 0 0 0 0 0 0 0 0 0 0 17 17 34 68 68 85 85 85 85 85 85 85 85 85 85 85 85 85 85 85 85 85 85 85 85 85 85 68 68 68 68 68 51 68 51 51 68 68 68 68 85 85 85 85 85 85 85 68 68 85 85 85 85 85 85 68 
0 0 0 0 0 0 0 0 0 0 0 0 0 0 0 0 0 0 0 0 0 0 0 17 17 34 34 68 68 85 85 85 85 85 85 85 85 85 85 85 85 85 85 85 85 85 85 85 85 85 68 68 68 68 68 68 51 51 68 51 51 51 51 68 85 85 85 85 85 85 68 68 85 85 85 85 85 85 85 34 
0 0 0 0 0 17 17 0 0 0 0 0 0 0 0 0 0 0 0 0 0 0 0 0 17 17 17 51 68 85 85 85 85 85 85 85 85 85 85 85 85 85 85 85 85 85 85 85 85 68 68 68 68 68 68 68 51 51 51 51 68 51 68 51 51 85 85 85 85 85 68 68 68 68 68 85 85 85 85 68 
0 0 17 34 34 68 34 0 0 0 0 0 0 0 0 0 0 0 0 0 0 0 0 0 17 17 34 68 68 85 85 85 85 85 85 85 85 85 85 85 85 85 85 85 85 85 85 85 68 68 68 68 68 68 68 51 51 51 51 51 51 51 51 51 68 68 85 85 85 68 68 68 68 68 68 85 85 85 85 51 
